<?xml version="1.0" encoding="UTF-8"?>
<svg id="Layer_1" data-name="Layer 1" xmlns="http://www.w3.org/2000/svg" viewBox="0 0 329.76 331.66">
  <defs>
    <style>
      .cls-1, .cls-2, .cls-3, .cls-4, .cls-5, .cls-6, .cls-7 {
        stroke-miterlimit: 10;
      }

      .cls-1, .cls-2, .cls-8, .cls-7 {
        fill: #231f20;
      }

      .cls-1, .cls-3 {
        stroke: #231f20;
      }

      .cls-2 {
        stroke-width: .25px;
      }

      .cls-2, .cls-4, .cls-5, .cls-6, .cls-7 {
        stroke: #fff;
      }

      .cls-3, .cls-4 {
        stroke-width: .1px;
      }

      .cls-3, .cls-4, .cls-5 {
        fill: none;
      }

      .cls-9, .cls-8 {
        stroke-width: 0px;
      }

      .cls-9, .cls-6 {
        fill: #fff;
      }

      .cls-5, .cls-7 {
        stroke-width: .02px;
      }
    </style>
  </defs>
  <circle class="cls-1" cx="164.88" cy="164.88" r="164.38"/>
  <polygon class="cls-6" points="164.88 109.68 181.1 142.55 217.38 147.82 191.13 173.41 197.33 209.54 164.88 192.48 132.43 209.54 138.63 173.41 112.38 147.82 148.66 142.55 164.88 109.68"/>
  <path class="cls-9" d="m137.2,173.64c-11.8,13.72-21.21,29.32-27.89,46.14-3.45,8.68-5.99,17.63-8.02,26.75-2.23,10-4.33,20.05-6.01,30.16-1.91,11.46-3.25,23.04-3.38,34.66-.04,3.22,4.96,3.22,5,0,.22-20.2,4.15-40.06,8.39-59.73,1.95-9.06,4.2-18.01,7.4-26.72,2.99-8.14,6.69-16.01,11-23.53,4.91-8.58,10.61-16.69,17.05-24.18.88-1.02,1.01-2.53,0-3.54-.9-.9-2.65-1.03-3.54,0h0Z"/>
  <path class="cls-9" d="m163.29,193.57c-2.45,18.36-4.03,36.87-3.61,55.4.4,17.44,2.58,34.93,7.34,51.73,2.64,9.33,6.1,18.42,10.39,27.12.6,1.21,2.31,1.54,3.42.9,1.23-.72,1.5-2.21.9-3.42-7.43-15.07-12.09-31.38-14.65-47.96-2.72-17.56-2.95-35.46-1.86-53.18.63-10.23,1.72-20.43,3.08-30.59.18-1.34-1.28-2.5-2.5-2.5-1.5,0-2.32,1.16-2.5,2.5h0Z"/>
  <path class="cls-9" d="m123.72,323.9h0c0,.06-.01.11-.02.17,0,0,0,0,0,0,0,0,.02.16.02.17,0,0,0,0,0,0,0,0,0,0,0,0l.06.15s0,0,0,0,0,0,0,0l.1.13s0,0,0,0c0,0,0,0,0,0,0,0,.12.09.13.1,0,0,0,0,0,0l.15.06h0s0,0,0,0h0c.06,0,.11.02.17.02,0,0,0,0,0,0,.03,0,.06,0,.08-.01.03,0,.06,0,.09-.01.08-.02.15-.06.21-.11.07-.04.12-.1.16-.18.05-.07.07-.15.07-.23.02-.08.01-.17-.01-.25l-.06-.15c-.06-.09-.13-.17-.22-.22l-.15-.06c-.11-.03-.22-.03-.33,0h0c.06,0,.11-.01.17-.02,0,0,0,0,0,0l.17.02s0,0,0,0l.15.06s0,0,0,0l.13.1s0,0,0,0l.1.13s0,0,0,0l.06.15s0,0,0,0l.02.17s0,0,0,0l-.02.17h0c.03-.09.03-.17.01-.25,0-.08-.03-.16-.07-.23-.04-.07-.09-.13-.16-.18-.06-.06-.13-.09-.21-.11l-.17-.02c-.11,0-.22.03-.32.09l-.13.1c-.08.08-.13.17-.16.28h0Z"/>
  <path class="cls-2" d="m93.75,313.67c4.47,2.03,9.49,4.2,9.49,4.2l2.17.83,1.72.67,1.88.69,1.99.71,3.37,1.12,4.22,1.27,2.66.76,2.08.58,1.45.31,3.17.8,2.41.51,1.76.36,1.83.36,1.67.33s2.28.4,2.34.4,2.01.29,2.01.29l1.45.2,1.12.16,1.27.16,2.19.27,1.88.22,1.96.2,2.28.18,2.17.16,1.76.11,2.84.13h9.58l2.38-.09,2.16-.11,2.57-.2,1.99-.16,1.56-.11,2.75-.33"/>
  <path class="cls-9" d="m160.91,318.48c.09.15.17.3.23.46l-.25-.6c.34.85.36,1.78.71,2.63.25.62.52,1.18.92,1.71s.82,1.04,1.27,1.54c.42.46,1.16.73,1.77.73s1.35-.27,1.77-.73c.95-1.04.94-2.5,0-3.54-.28-.31-.57-.63-.83-.96l.39.51c-.27-.36-.52-.73-.7-1.15l.25.6c-.22-.53-.32-1.08-.43-1.64-.15-.72-.39-1.45-.78-2.08-.33-.54-.87-.98-1.49-1.15s-1.4-.09-1.93.25-1,.86-1.15,1.49-.1,1.35.25,1.93h0Z"/>
  <path class="cls-9" d="m163.59,317.66c1.06,1.45,2.12,2.89,3.12,4.38.48.72.93,1.46,1.39,2.18.89,1.38,2.56,2.54,4.22,1.56,1.33-.79,1.67-2.31,1.18-3.7-.28-.79-.6-1.57-.89-2.36s-.58-1.64-.76-2.49c-.03-.12-.14-.47-.11-.59-.16.63.18,0,.01-.1.27.16-.89,1.39-.35.91-.31.22-.35.27-.12.13-.24.13-.5.19-.77.18l-1.26-.34c-.94-.45-1.07-1.71-.78-.76.06.19.12.38.18.57.12.38.25.76.39,1.13.33.89.69,1.77,1.09,2.63.67,1.46,1.46,2.85,2.35,4.18.6.89,1.73,1.5,2.82,1.15s1.81-1.27,1.84-2.41c.03-1.6-.79-3.21-1.53-4.59-.3-.56-.62-1.11-.93-1.67-.17-.31-.33-.61-.49-.93-.07-.14-.14-.28-.21-.43-.06-.13-.28-.68-.05-.1l-4.57,1.93c.79,1.64,1.56,3.26,2.64,4.75.52.72,1.07,1.42,1.55,2.16.54.83.92,1.78,1.67,2.45.97.88,2.59,1.03,3.54,0,.88-.96,1.04-2.6,0-3.54-.09-.07-.17-.15-.24-.24.2.26.25.32.15.16-.08-.18-.2-.35-.29-.52-.19-.34-.4-.68-.62-1.01-.49-.74-1.04-1.44-1.56-2.16-1.03-1.43-1.76-3-2.52-4.59-.54-1.12-2.06-1.47-3.12-1.02s-1.91,1.79-1.45,2.95c.54,1.33,1.21,2.57,1.9,3.82.29.53.55,1.07.82,1.61.14.27-.16-.43,0,.01.05.15.11.3.16.45s.08.3.14.45c.17.47,0-.48,0,.05l4.66-1.26c-.52-.77-1.01-1.57-1.46-2.39-.22-.41-.44-.83-.64-1.25-.09-.18-.17-.36-.26-.54-.05-.1-.41-.9-.15-.32-.36-.78-.63-1.62-.89-2.44-.16-.52-.28-1.1-.57-1.58-.51-.85-1.43-1.39-2.43-1.37-1.39.03-2.8,1.06-3.33,2.31-.5,1.19-.29,2.45,0,3.67.21.91.53,1.79.86,2.67.17.44.34.88.5,1.32.07.19.14.38.21.57.05.13.09.25.13.38.15.6.22.14.22-1.38l.9-.9-.09.05,1.26-.34h-.14c.42.11.84.22,1.26.33-.17-.09-.17-.08,0,.03.14.08.25.19.33.34-.02-.08-.13-.2-.17-.27-.2-.33-.41-.66-.61-.98-.4-.62-.81-1.23-1.23-1.84-.84-1.21-1.72-2.41-2.59-3.6-.4-.54-.82-.96-1.49-1.15-.6-.16-1.4-.09-1.93.25-1.04.67-1.72,2.29-.9,3.42h0Z"/>
  <path class="cls-9" d="m160.41,323.09c1.11,1.44,2.35,2.66,3.92,3.6,1.4.83,3.6,1.9,5.27,1.52,1.91-.44,2.41-2.64,1.53-4.16-.53-.91-1.36-1.49-2.19-2.08-.29-.21-.58-.42-.87-.63-.05-.04-.62-.48-.18-.13-.11-.09-.23-.18-.34-.27-.61-.5-1.2-1.02-1.76-1.58-.27-.28-.54-.56-.79-.86-.11-.13-.23-.27-.34-.41.35.45-.07-.11-.11-.18-.48-.71-.79-1.63-1.4-2.24-1-1-2.59-1.13-3.8-.46-1.02.56-1.67,1.64-1.87,2.77-.67,3.64.05,8.09,3.56,10.07,1.93,1.09,4.27.97,6.41.93,2.32-.04,4.69-.23,6.81-1.24,1.18-.56,1.59-2.35.9-3.42-.78-1.22-2.15-1.5-3.42-.9.39-.19-.07.03-.16.06-.19.06-.37.11-.56.16s-.38.08-.57.12c-.14.03-.53.08-.19.04-.84.11-1.69.16-2.54.18s-1.69.02-2.54,0c-.2,0-.4,0-.6-.02-.09,0-.63-.06-.17,0-.2-.03-.39-.07-.58-.13-.08-.02-.15-.04-.23-.07-.19-.07-.15-.05.13.06-.02.02-.3-.17-.33-.19-.5-.28.3.33-.1-.07-.09-.09-.18-.18-.27-.27-.42-.41.23.4-.09-.1-.17-.28-.33-.55-.47-.85.08.18.12.33.04.05-.05-.19-.11-.38-.16-.57s-.1-.51-.05-.15c-.03-.19-.04-.39-.05-.59-.02-.39-.02-.79,0-1.18.01-.2.03-.39.05-.59.03-.49-.06.13.01-.11.08-.29.15-.33-.03-.09-.46.58-1.44,1.02-2.16.49l-.9-.9c.26.36.43.81.66,1.2.33.55.71,1.05,1.11,1.55.57.73,1.19,1.4,1.87,2.03.79.73,1.64,1.39,2.5,2.04.4.3.8.61,1.21.89.51.35-.32-.35.12.09.1.09.19.18.27.27-.14-.13-.24-.29-.3-.47v-1.33l-.04.13,1.75-1.75c.11-.04,1.26.13.7-.06-.13-.04-.26-.07-.39-.11-.29-.09-.58-.2-.87-.3-.34-.12.35.18.03.01-.12-.06-.25-.12-.37-.18-.27-.14-.54-.29-.8-.45-.23-.14-.45-.31-.68-.46.18.12.22.18.02.02-.1-.09-.21-.17-.31-.27-.23-.2-.45-.42-.66-.64-.11-.12-.66-.78-.33-.35-.42-.54-.81-.96-1.49-1.15-.6-.16-1.4-.09-1.93.25-1.02.66-1.75,2.31-.9,3.42h0Z"/>
  <path class="cls-9" d="m143.96,316.51c.46,3.06,1.8,9.74,5.95,9.65,2.63-.05,3.16-2.81,3.03-4.9-.05-.86-.2-1.72-.22-2.58,0-.13.13-.81.09-.91.02-.05.04-.09.07-.13-.37.04-.72.12-1.07.24l-.9-.9c.49.66.43,1.96.58,2.84.2,1.2.54,2.35,1.06,3.46.96,2.05,3.46,4.12,5.78,2.71s1.59-4.28.78-6.28c-.42-1.04-.93-2.03-1.41-3.04-.18-.39-.37-.77-.51-1.17-.09-.24-.17-.48-.24-.73-.12-.65-.18-.49-.19.47l-.9.9.25-.14-1.26.34.27.02-1.26-.34.17.13-.9-.9c.83,1.15,1.06,2.63,1.75,3.86.8,1.42,2.06,2.56,3.66,2.97,3.36.86,6.65-1.93,6.47-5.35s-3.65-5.39-6.71-6.14c-1.49-.37-3.15-.7-4.66-.24-.85.26-1.59.74-2.24,1.33-.24.22-.46.48-.68.72-.07.08-.65.57-.37.42l1.93-.25-.16-.05,1.1,4.18c.79-.94,2.25-1.22,3.41-1.51,1.5-.38,3.02-.59,4.56-.68s3.12-.06,4.67.01c1.63.07,3.76.39,5.24-.43s1.5-2.73.51-3.93l-.05-.06c-.66-.79-2.18-.97-3.03-.39l-.05.03c-1.11.76-1.61,2.2-.9,3.42.65,1.1,2.3,1.66,3.42.9l.05-.03-3.03-.39.05.06.51-3.93-.15.08,1.26-.34c-3.47.29-6.93-.25-10.4.16-3.12.37-7.45.93-9.61,3.49-1.23,1.47-.77,3.55,1.1,4.18,1.08.36,2.1-.06,2.89-.8.37-.34.81-1.1,1.26-1.32.85-.41,2.72.31,3.55.65.19.08,2.06.92,1.45,1.36-.39.29-.89-.9-1.01-1.15-.67-1.5-1-3.49-2.56-4.37-2.05-1.16-4.47.57-4.51,2.79-.03,1.62.83,3.28,1.51,4.7.33.7.71,1.38,1,2.09.14.33.25.67.35,1.01.36,1.24-.22-.07.83-.52l1.26-.34c.58,0,.45.19.19-.35-.2-.42-.34-.88-.45-1.33-.25-.99-.33-2-.51-3-.39-2.24-1.89-4.17-4.4-3.81s-3.7,2.61-3.91,4.85c-.16,1.61.61,3.49.04,5.02l.64-1.1-.15.17,1.77-.73-.31.03,1.26.34c-.77-.35-1.03-1.53-1.29-2.28-.44-1.32-.75-2.68-.95-4.06s-1.89-2.07-3.08-1.75c-1.43.39-1.95,1.73-1.75,3.08h0Z"/>
  <path class="cls-4" d="m174.15,329.44c.95-.1,1.47-.11,1.49-.11s.81-.04.81-.04l1.11-.08.81-.05"/>
  <path class="cls-7" d="m174.15,329.47c.42-.02.74-.03.74-.03l.59-.04.33-.02s.45-.03.45-.03,1.05-.07,1.05-.07l1.06-.08.76-.06,2.75-.26-.04-2.18"/>
  <path class="cls-7" d="m181.83,325.57s.72,2.54,1.1,3.22"/>
  <path class="cls-5" d="m182.93,328.79s-.58.05-1.05.09c-.14.01-.29.03-.29.03"/>
  <path class="cls-9" d="m178.56,327.72c3.22,0,3.22-5,0-5s-3.22,5,0,5h0Z"/>
  <path class="cls-8" d="m181.58,324.98s.06.08.07.13.03.09.05.13c.02.03.06,0,.04-.03-.03-.04-.03-.09-.05-.13-.02-.05-.05-.09-.07-.13,0-.01-.02-.02-.03,0-.01,0-.02.02,0,.03h0Z"/>
  <path class="cls-8" d="m181.67,325.14c.12.25.2.52.28.79,0,.03.06.02.05-.01-.08-.27-.16-.54-.29-.8-.01-.03-.06,0-.04.03h0Z"/>
  <path class="cls-8" d="m181.99,325.88c-.04-.1-.07-.21-.09-.32,0-.01-.02-.02-.03-.02-.01,0-.02.02-.02.03.02.11.05.21.09.32,0,.01.02.02.03.02.01,0,.02-.02.02-.03h0Z"/>
  <path class="cls-9" d="m181.97,326.22l.08.37h.05c-.02-.07-.03-.12-.03-.18h-.05c.11.36.23.71.34,1.06.1.32.19.65.33.95l.04-.03c-.07-.14-.11-.29-.15-.44h-.05c.09.27.18.53.29.79.01.03.06.02.05-.01-.1-.26-.2-.51-.29-.77-.01-.03-.06-.02-.05.01.04.16.09.3.15.45.01.03.06,0,.04-.03-.14-.32-.23-.66-.34-.99s-.22-.67-.33-1.01c0-.03-.05-.02-.05,0,0,.07,0,.12.03.18,0,.03.05.02.05-.01l-.08-.37s-.05-.02-.05.01h0Z"/>
  <path class="cls-9" d="m181.89,328.87l.38-.05s.03-.05,0-.05c0,0-.01,0-.02,0-.03,0-.03.05,0,.05,0,0,.01,0,.02,0v-.05l-.38.05s-.02.01-.02.02c0,.01.01.03.02.02h0Z"/>
  <path class="cls-9" d="m181.94,328.87c.32-.02.63-.08.94-.1.03,0,.03-.05,0-.05-.32.01-.63.08-.94.1-.03,0-.03.05,0,.05h0Z"/>
  <path class="cls-9" d="m182.9,328.73c-.09-.02-.18,0-.27.02-.01,0-.02.02-.02.03,0,.01.02.02.03.02.08-.02.16-.03.24-.02.01,0,.03,0,.03-.02,0-.01,0-.03-.02-.03h0Z"/>
  <path class="cls-9" d="m182.87,328.75c-.07-.02-.15,0-.22,0-.08.01-.15.02-.23.02-.03,0-.03.05,0,.05.07,0,.15,0,.22-.01s.15-.03.22,0c.03,0,.04-.04.01-.05h0Z"/>
  <path class="cls-9" d="m182.89,328.71s-.07-.08-.08-.14l-.04.02s.04.06.05.1c0,.03.05.02.05,0s0-.05-.03-.07c-.01-.02-.04,0-.04.01,0,.01,0,.02,0,.04,0,0,.02.03.01.04,0,0-.05,0-.07.01-.03,0-.06.01-.09.02-.03,0-.02.04,0,.05.05.02.09.02.14,0,0,0,.02-.01.02-.02,0-.03,0-.05,0-.08,0-.02-.01-.04-.03-.03-.09.04-.18.06-.28.07-.03,0-.02.05,0,.05.09-.01.18-.03.27-.05.03,0,.02-.05-.01-.05-.14.02-.28.04-.42.05-.06,0-.12,0-.18.02-.07.02-.12.02-.2.01v.05c.14.01.28,0,.42-.03.03,0,.02-.06-.01-.05-.14.03-.27.04-.41.03-.03,0-.03.04,0,.05.06,0,.12.02.18,0,.03,0,.06-.02.09-.02.04,0,.08,0,.11,0,.15-.01.29-.03.43-.05v-.05c-.1.02-.18.04-.27.05v.05c.1-.01.19-.04.28-.07l-.03-.03s0,.06,0,.09l.02-.02s-.07.02-.11,0v.05s.07-.01.1-.02c.02,0,.05,0,.07-.02.01,0,.02-.02.02-.04,0-.02-.02-.04-.02-.06h-.04s0,.03.01.05h.05c-.01-.05-.03-.09-.06-.13-.02-.02-.04,0-.04.02,0,.06.04.12.09.16.02.02.06-.02.04-.04h0Z"/>
  <path class="cls-9" d="m182.32,328.8s.04,0,.06,0c.02,0,.04,0,.06-.01.04,0,.08-.02.13-.03.01,0,.02-.02.02-.03,0-.01-.02-.02-.03-.02-.04,0-.08.02-.12.02-.02,0-.04,0-.06.01s-.04,0-.06,0c-.01,0-.02.01-.02.02,0,.01.01.02.02.02h0Z"/>
  <path class="cls-9" d="m180.9,326.97l.03.14,1.14-.48v-.02s.03.1.05.15v-.02c0,.11,0,.22,0,.33h0s-.04.08-.06.13h0c-.07.06-.15.14-.22.21h.01c-.31-.13-.61-.26-.92-.38.06.18.14.36.16.55l-.02-.17s0,.05,0,.08c0,.17.06.32.18.44.11.11.29.19.44.18.35-.02.6-.27.62-.62,0-.04,0-.08,0-.12l-1.23.17c.06.29.16.56.27.84.06.16.14.28.29.37.13.08.33.11.48.06s.3-.14.37-.29.12-.33.06-.48c-.11-.27-.21-.55-.27-.84-.03-.14-.16-.31-.29-.37s-.26-.09-.4-.07c-.32.04-.52.3-.54.61,0,.04,0,.08,0,.12h1.25c-.02-.28-.1-.53-.19-.8-.06-.19-.18-.33-.36-.41s-.37-.06-.56.03c-.15.07-.27.24-.31.4-.04.19,0,.36.08.53.06.13.23.26.37.29s.27.02.41-.03c.29-.12.43-.43.36-.74l-.03-.14c-.03-.15-.16-.3-.29-.37s-.33-.11-.48-.06c-.34.11-.51.43-.44.77h0Z"/>
  <path class="cls-9" d="m179.87,327.2c.16.45.36.89.62,1.3.09.14.22.24.37.29s.35.02.48-.06.25-.21.29-.37.03-.34-.06-.48c-.16-.26-.31-.53-.43-.82l.06.15c-.05-.11-.09-.22-.13-.33-.05-.15-.14-.29-.29-.37-.13-.08-.33-.11-.48-.06s-.3.14-.37.29-.12.32-.06.48h0Z"/>
  <path class="cls-9" d="m178.52,328.95c.79-.35,1.56-.74,2.31-1.17.28-.16.41-.57.22-.86s-.55-.4-.86-.22c-.75.43-1.52.82-2.31,1.17-.13.06-.25.24-.29.37-.04.15-.02.35.06.48s.21.25.37.29c.17.04.32,0,.48-.06h0Z"/>
  <path class="cls-9" d="m178.42,329.14c.07,0,.15-.02.22-.03.02,0,.04,0,.06-.01.08-.02.15-.06.21-.11.07-.04.12-.1.16-.18.05-.07.07-.15.07-.23.02-.08.01-.17-.01-.25l-.06-.15c-.06-.09-.13-.17-.22-.22l-.15-.06c-.11-.03-.22-.03-.33,0-.02,0-.04.01-.07.01l.17-.02s-.03,0-.04,0c-.09,0-.17.01-.24.05-.08.03-.14.07-.2.13-.06.06-.1.12-.13.2-.04.07-.06.15-.05.24l.02.17c.03.11.08.2.16.28l.13.1c.1.06.2.08.32.09h0Z"/>
  <path class="cls-9" d="m178.64,329.11s.02,0,.03,0c.02,0,.13-.01.19-.03.08-.02.15-.06.21-.11.07-.04.12-.1.16-.18.05-.07.07-.15.07-.23.02-.08.01-.17-.01-.25l-.06-.15c-.06-.09-.13-.17-.22-.22l-.15-.06c-.11-.03-.22-.03-.33,0,0,0-.01,0-.02,0l.17-.02s-.02,0-.03,0c-.09,0-.17.01-.24.05-.08.03-.14.07-.2.13-.06.06-.1.12-.13.2-.04.07-.06.15-.05.24l.02.17c.03.11.08.2.16.28l.13.1c.1.06.2.08.32.09h0Z"/>
  <path class="cls-9" d="m178.76,329.09h.05c.09,0,.17-.02.24-.06.08-.03.14-.07.2-.13.06-.06.1-.12.13-.2.04-.07.06-.15.05-.24l-.02-.17c-.03-.11-.08-.2-.16-.28l-.13-.1c-.1-.06-.2-.08-.32-.09h-.05c-.09,0-.17.02-.24.06-.08.03-.14.07-.2.13-.06.06-.1.12-.13.2-.04.07-.06.15-.05.24l.02.17c.03.11.08.2.16.28l.13.1c.1.06.2.08.32.09h0Z"/>
  <path class="cls-9" d="m178.88,329.07s.01,0,.02,0c.06,0,.12-.01.17-.02,0,0,0,0,0,0,.01,0,.02,0,.03,0,.08-.02.15-.06.21-.11.07-.04.12-.1.16-.18.05-.07.07-.15.07-.23.02-.08.01-.17-.01-.25l-.06-.15c-.06-.09-.13-.17-.22-.22l-.15-.06c-.11-.03-.22-.03-.33,0-.01,0-.03,0-.04,0l.17-.02s-.01,0-.02,0c-.09,0-.17.01-.24.05-.08.03-.14.07-.2.13-.06.06-.1.12-.13.2-.04.07-.06.15-.05.24l.02.17c.03.11.08.2.16.28l.13.1c.1.06.2.08.32.09h0Z"/>
  <path class="cls-9" d="m179.2,329.02h.03c.08-.03.15-.06.21-.12.07-.04.12-.1.16-.18.05-.07.07-.15.07-.23.02-.08.01-.17-.01-.25l-.06-.15c-.06-.09-.13-.17-.22-.22l-.15-.06c-.11-.03-.22-.03-.33,0h-.03c-.08.03-.15.06-.21.12-.07.04-.12.1-.16.18-.05.07-.07.15-.07.23-.02.08-.01.17.01.25l.06.15c.06.09.13.17.22.22l.15.06c.11.03.22.03.33,0h0Z"/>
  <path class="cls-9" d="m179.3,329s.02,0,.02,0l-.17.02s.02,0,.03,0c.09,0,.17-.01.24-.05.08-.03.14-.07.2-.13.06-.06.1-.12.13-.2.04-.07.06-.15.05-.24l-.02-.17c-.03-.11-.08-.2-.16-.28l-.13-.1c-.1-.06-.2-.08-.32-.09,0,0-.02,0-.03,0-.02,0-.13,0-.19.03-.08.02-.15.06-.21.11-.07.04-.12.1-.16.18-.05.07-.07.15-.07.23-.02.08-.01.17.01.25l.06.15c.06.09.13.17.22.22l.15.06c.11.03.22.03.33,0h0Z"/>
  <path class="cls-9" d="m179.28,329c.06,0,.14-.02.2-.02.01,0,.02,0,.03,0,.08-.02.15-.06.21-.11.07-.04.12-.1.16-.18.05-.07.07-.15.07-.23.02-.08.01-.17-.01-.25l-.06-.15c-.06-.09-.13-.17-.22-.22l-.15-.06c-.11-.03-.22-.03-.33,0-.01,0-.02,0-.03,0l.17-.02s-.02,0-.03,0c-.09,0-.17.01-.24.05-.08.03-.14.07-.2.13-.06.06-.1.12-.13.2-.04.07-.06.15-.05.24l.02.17c.03.11.08.2.16.28l.13.1c.1.06.2.08.32.09h0Z"/>
  <path class="cls-9" d="m179.47,328.98h.05c.09,0,.17-.02.24-.06.08-.03.14-.07.2-.13.06-.06.1-.12.13-.2.04-.07.06-.15.05-.24l-.02-.17c-.03-.11-.08-.2-.16-.28l-.13-.1c-.1-.06-.2-.08-.32-.09h-.05c-.09,0-.17.02-.24.06-.08.03-.14.07-.2.13-.06.06-.1.12-.13.2-.04.07-.06.15-.05.24l.02.17c.03.11.08.2.16.28l.13.1c.1.06.2.08.32.09h0Z"/>
  <path class="cls-9" d="m179.81,328.95h.1c.08-.03.15-.07.21-.13.07-.04.12-.1.16-.18.05-.07.07-.15.07-.23.02-.08.01-.17-.01-.25l-.06-.15c-.06-.09-.13-.17-.22-.22l-.15-.06c-.11-.03-.22-.03-.33,0h-.1c-.08.03-.15.07-.21.13-.07.04-.12.1-.16.18-.05.07-.07.15-.07.23-.02.08-.01.17.01.25l.06.15c.06.09.13.17.22.22l.15.06c.11.03.22.03.33,0h0Z"/>
  <path class="cls-9" d="m179.99,328.91l.11-.02c.08-.02.15-.06.21-.11.07-.04.12-.1.16-.18.05-.07.07-.15.07-.23.02-.08.01-.17-.01-.25l-.06-.15c-.06-.09-.13-.17-.22-.22l-.15-.06c-.11-.03-.22-.03-.33,0l-.11.02c-.08.02-.15.06-.21.11-.07.04-.12.1-.16.18-.05.07-.07.15-.07.23-.02.08-.01.17.01.25l.06.15c.06.09.13.17.22.22l.15.06c.11.03.22.03.33,0h0Z"/>
  <path class="cls-9" d="m180.1,328.89h.14c.09,0,.17-.02.24-.06.08-.03.14-.07.2-.13.06-.06.1-.12.13-.2.04-.07.06-.15.05-.24l-.02-.17c-.03-.11-.08-.2-.16-.28l-.13-.1c-.1-.06-.2-.08-.32-.09h-.14c-.09,0-.17.02-.24.06-.08.03-.14.07-.2.13-.06.06-.1.12-.13.2-.04.07-.06.15-.05.24l.02.17c.03.11.08.2.16.28l.13.1c.1.06.2.08.32.09h0Z"/>
  <path class="cls-9" d="m180.16,327.65s0,0-.01,0c-.03.01-.05.02-.08.03-.03,0-.05.02-.08.03,0,0,0,0,0,0-.07.04-.13.09-.18.16-.06.06-.09.13-.11.21-.03.08-.03.17-.01.25,0,.08.03.16.07.23l.1.13c.08.08.17.13.28.16l.17.02c.11,0,.22-.03.32-.09,0,0,0,0,0,0l-.15.06s0,0,.01,0c.08-.02.15-.06.21-.11.07-.04.12-.1.16-.18.05-.07.07-.15.07-.23.02-.08.01-.17-.01-.25l-.06-.15c-.06-.09-.13-.17-.22-.22l-.15-.06c-.11-.03-.22-.03-.33,0h0Z"/>
  <path class="cls-9" d="m179.81,327.85l-.02.02c-.06.06-.1.12-.13.2-.04.07-.06.15-.05.24,0,.09.01.17.05.24.03.08.07.14.13.2l.13.1c.1.06.2.08.32.09l.17-.02c.11-.03.2-.08.28-.16l.02-.02c.06-.06.1-.12.13-.2.04-.07.06-.15.05-.24,0-.09-.01-.17-.05-.24-.03-.08-.07-.14-.13-.2l-.13-.1c-.1-.06-.2-.08-.32-.09l-.17.02c-.11.03-.2.08-.28.16h0Z"/>
  <path class="cls-9" d="m179.77,327.89h0c-.06.06-.1.13-.13.21-.04.07-.06.15-.05.24,0,.09.01.17.05.24.03.08.07.14.13.2l.13.1c.1.06.2.08.32.09l.17-.02c.11-.03.2-.08.28-.16h0c.06-.06.1-.13.13-.21.04-.07.06-.15.05-.24,0-.09-.01-.17-.05-.24-.03-.08-.07-.14-.13-.2l-.13-.1c-.1-.06-.2-.08-.32-.09l-.17.02c-.11.03-.2.08-.28.16h0Z"/>
  <path class="cls-9" d="m180.19,328.98c.8,0,.81-1.25,0-1.25s-.81,1.25,0,1.25h0Z"/>
  <path class="cls-9" d="m179.84,327.83h0c-.07.04-.13.1-.18.16-.06.06-.09.13-.11.21-.03.08-.03.17-.01.25,0,.08.03.16.07.23l.1.13c.08.08.17.13.28.16l.17.02c.11,0,.22-.03.32-.09h0c.07-.04.13-.1.18-.16.06-.06.09-.13.11-.21.03-.08.03-.17.01-.25,0-.08-.03-.16-.07-.23l-.1-.13c-.08-.08-.17-.13-.28-.16l-.17-.02c-.11,0-.22.03-.32.09h0Z"/>
  <path class="cls-9" d="m179.71,328.83h0c.06.06.12.11.2.13.07.04.15.06.24.05.09,0,.17-.01.24-.05.08-.03.14-.07.2-.13l.1-.13c.06-.1.08-.2.09-.32l-.02-.17c-.03-.11-.08-.2-.16-.28h0c-.06-.06-.12-.11-.2-.13-.07-.04-.15-.06-.24-.05-.09,0-.17.01-.24.05-.08.03-.14.07-.2.13l-.1.13c-.06.1-.08.2-.09.32l.02.17c.03.11.08.2.16.28h0Z"/>
  <path class="cls-9" d="m180.17,329.02h0c.09,0,.17-.01.24-.05.08-.03.14-.07.2-.13.06-.06.1-.12.13-.2.04-.07.06-.15.05-.24l-.02-.17c-.03-.11-.08-.2-.16-.28l-.13-.1c-.1-.06-.2-.08-.32-.09h0c-.09,0-.17.01-.24.05-.08.03-.14.07-.2.13-.06.06-.1.12-.13.2-.04.07-.06.15-.05.24l.02.17c.03.11.08.2.16.28l.13.1c.1.06.2.08.32.09h0Z"/>
  <path class="cls-9" d="m180.21,329.02h0c.09,0,.17-.01.24-.05.08-.03.14-.07.2-.13.06-.06.1-.12.13-.2.04-.07.06-.15.05-.24l-.02-.17c-.03-.11-.08-.2-.16-.28l-.13-.1c-.1-.06-.2-.08-.32-.09h0c-.09,0-.17.01-.24.05-.08.03-.14.07-.2.13-.06.06-.1.12-.13.2-.04.07-.06.15-.05.24l.02.17c.03.11.08.2.16.28l.13.1c.1.06.2.08.32.09h0Z"/>
  <path class="cls-9" d="m180.41,328.99h0c.08-.02.15-.06.21-.11.07-.04.12-.1.16-.18.05-.07.07-.15.07-.23.02-.08.01-.17-.01-.25l-.06-.15c-.06-.09-.13-.17-.22-.22l-.15-.06c-.11-.03-.22-.03-.33,0h0c-.08.02-.15.06-.21.11-.07.04-.12.1-.16.18-.05.07-.07.15-.07.23-.02.08-.01.17.01.25l.06.15c.06.09.13.17.22.22l.15.06c.11.03.22.03.33,0h0Z"/>
  <path class="cls-9" d="m180.27,329.01h0c.09,0,.17-.01.24-.05.08-.03.14-.07.2-.13.06-.06.1-.12.13-.2.04-.07.06-.15.05-.24l-.02-.17c-.03-.11-.08-.2-.16-.28l-.13-.1c-.1-.06-.2-.08-.32-.09h0c-.09,0-.17.01-.24.05-.08.03-.14.07-.2.13-.06.06-.1.12-.13.2-.04.07-.06.15-.05.24l.02.17c.03.11.08.2.16.28l.13.1c.1.06.2.08.32.09h0Z"/>
  <path class="cls-9" d="m180.28,329.01c.8,0,.81-1.25,0-1.25s-.81,1.25,0,1.25h0Z"/>
  <path class="cls-9" d="m180.26,329.02c.8,0,.81-1.25,0-1.25s-.81,1.25,0,1.25h0Z"/>
  <path class="cls-9" d="m180.28,329.02h0c.09,0,.17-.01.24-.05.08-.03.14-.07.2-.13.06-.06.1-.12.13-.2.04-.07.06-.15.05-.24l-.02-.17c-.03-.11-.08-.2-.16-.28l-.13-.1c-.1-.06-.2-.08-.32-.09h0c-.09,0-.17.01-.24.05-.08.03-.14.07-.2.13-.06.06-.1.12-.13.2-.04.07-.06.15-.05.24l.02.17c.03.11.08.2.16.28l.13.1c.1.06.2.08.32.09h0Z"/>
  <path class="cls-9" d="m180.32,329.01h.01c.09,0,.17-.01.24-.05.08-.03.14-.07.2-.13.06-.06.1-.12.13-.2.04-.07.06-.15.05-.24l-.02-.17c-.03-.11-.08-.2-.16-.28l-.13-.1c-.1-.06-.2-.08-.32-.09h-.01c-.09,0-.17.01-.24.05-.08.03-.14.07-.2.13-.06.06-.1.12-.13.2-.04.07-.06.15-.05.24l.02.17c.03.11.08.2.16.28l.13.1c.1.06.2.08.32.09h0Z"/>
  <path class="cls-9" d="m180.37,329.01c.8,0,.81-1.25,0-1.25s-.81,1.25,0,1.25h0Z"/>
  <path class="cls-9" d="m180.55,328.99h0c.08-.02.15-.06.21-.11.07-.04.12-.1.16-.18.05-.07.07-.15.07-.23.02-.08.01-.17-.01-.25l-.06-.15c-.06-.09-.13-.17-.22-.22l-.15-.06c-.11-.03-.22-.03-.33,0h0c-.08.02-.15.06-.21.11-.07.04-.12.1-.16.18-.05.07-.07.15-.07.23-.02.08-.01.17.01.25l.06.15c.06.09.13.17.22.22l.15.06c.11.03.22.03.33,0h0Z"/>
  <path class="cls-9" d="m180.35,329.01h.13s.07,0,.1-.03c.03-.01.06-.03.08-.05.02-.02.04-.05.05-.08.02-.03.02-.06.02-.1v-.07s-.04-.08-.07-.11l-.05-.04s-.08-.03-.13-.03h-.13s-.07,0-.1.03c-.03.01-.06.03-.08.05-.02.02-.04.05-.05.08-.02.03-.02.06-.02.1v.07s.04.08.07.11l.05.04s.08.03.13.03h0Z"/>
  <path class="cls-9" d="m180.5,329.01s.04,0,.06,0c.04,0,.08-.01.12-.02s.08-.02.12-.03h-.07s.01,0,.02,0c.03,0,.07,0,.1-.02.03-.01.06-.03.08-.05.02-.02.04-.05.05-.08.02-.03.02-.06.02-.1v-.07s-.04-.08-.07-.11l-.05-.04s-.08-.03-.13-.03c-.06,0-.11.01-.16.03-.03,0-.07.02-.1.02h.07s-.04,0-.06,0c-.03,0-.07,0-.1.02-.03.01-.06.03-.08.05-.02.02-.04.05-.05.08-.02.03-.02.06-.02.1v.07s.04.08.07.11l.05.04s.08.03.13.03h0Z"/>
  <path class="cls-9" d="m180.78,328.97s.1-.03.15-.04h-.07s.1,0,.15-.01.09-.03.14-.05c.03-.02.05-.04.07-.06.02-.02.04-.05.04-.09.01-.03.01-.07,0-.1,0-.03-.01-.06-.03-.09-.03-.05-.09-.1-.15-.11h-.07s-.09,0-.13.03h0s.04-.01.06-.02c-.03.01-.07.02-.1.03h.07c-.05,0-.11,0-.16.01-.03,0-.07.02-.1.03-.03,0-.06.02-.09.04-.03.02-.05.04-.06.07-.02.03-.03.06-.03.09,0,.03,0,.07,0,.1.02.06.06.12.11.15s.13.05.19.03h0Z"/>
  <path class="cls-9" d="m180.71,328.99c.11-.02.22-.04.34-.06.03,0,.06-.02.09-.04.03-.02.05-.04.06-.07.02-.03.03-.06.03-.09,0-.03,0-.07,0-.1-.02-.06-.06-.12-.11-.15l-.06-.03s-.09-.01-.13,0c-.11.02-.22.04-.34.06-.03,0-.06.02-.09.04-.03.02-.05.04-.06.07-.02.03-.03.06-.03.09,0,.03,0,.07,0,.1.02.06.06.12.11.15l.06.03s.09.01.13,0h0Z"/>
  <path class="cls-9" d="m180.84,328.98s.08-.01.05,0,.05,0,.05,0c.04,0,.09,0,.13-.01.1,0,.19-.01.29-.02.21-.01.41-.03.61-.07.13-.03.21-.19.17-.31-.04-.14-.17-.2-.31-.17-.05,0-.1.02-.15.03.06,0-.01,0-.02,0-.02,0-.04,0-.06,0-.1,0-.19.02-.29.02-.21.01-.41.03-.62.06-.13.02-.21.19-.17.31.05.14.17.2.31.17h0Z"/>
  <path class="cls-9" d="m182.44,328.62c.32,0,.32-.5,0-.5s-.32.5,0,.5h0Z"/>
  <path class="cls-9" d="m182.45,328.68c.32,0,.32-.5,0-.5s-.32.5,0,.5h0Z"/>
  <path class="cls-9" d="m182.48,328.73c.32,0,.32-.5,0-.5s-.32.5,0,.5h0Z"/>
  <path class="cls-9" d="m182.4,328.77c.32,0,.32-.5,0-.5s-.32.5,0,.5h0Z"/>
  <path class="cls-9" d="m182.51,328.8c.32,0,.32-.5,0-.5s-.32.5,0,.5h0Z"/>
  <path class="cls-9" d="m182.53,328.8c.32,0,.32-.5,0-.5s-.32.5,0,.5h0Z"/>
  <path class="cls-9" d="m182.54,328.81c.32,0,.32-.5,0-.5s-.32.5,0,.5h0Z"/>
  <path class="cls-9" d="m182.55,328.81c.32,0,.32-.5,0-.5s-.32.5,0,.5h0Z"/>
  <path class="cls-9" d="m178.26,329.17c.1.01.2.02.3,0s.2-.03.31-.04h-.07c.06,0,.11,0,.17,0,.07,0,.13-.03.18-.07.04-.04.08-.11.07-.18,0-.13-.11-.25-.25-.25s-.28.03-.41.05h.07c-.1,0-.19.01-.29,0h.07s0,0-.01,0c-.03-.01-.07-.01-.1,0-.03,0-.06.01-.09.03-.05.03-.1.09-.11.15-.01.06-.01.14.03.19.03.05.09.11.15.11h0Z"/>
  <path class="cls-9" d="m178.8,329.17c.25-.04.46-.07.7-.1s.5-.05.74-.06c.13,0,.26-.11.25-.25,0-.13-.11-.26-.25-.25-.53.03-1.05.09-1.58.17-.13.02-.21.19-.17.31.05.14.17.2.31.17h0Z"/>
  <path class="cls-9" d="m179.05,329.14c.32,0,.32-.5,0-.5s-.32.5,0,.5h0Z"/>
  <path class="cls-9" d="m179.02,329.14c.32,0,.32-.5,0-.5s-.32.5,0,.5h0Z"/>
  <path class="cls-9" d="m179.11,329.13c.32,0,.32-.5,0-.5s-.32.5,0,.5h0Z"/>
  <path class="cls-9" d="m179.01,329.15c.32,0,.32-.5,0-.5s-.32.5,0,.5h0Z"/>
  <path class="cls-9" d="m179.22,329.12h0s.06-.03.09-.05c.03-.02.05-.04.06-.07.02-.03.03-.06.03-.09,0-.03,0-.07,0-.1l-.03-.06s-.05-.07-.09-.09l-.06-.03s-.09-.01-.13,0h0s-.06.03-.09.05c-.03.02-.05.04-.06.07-.02.03-.03.06-.03.09,0,.03,0,.07,0,.1l.03.06s.05.07.09.09l.06.03s.09.01.13,0h0Z"/>
  <path class="cls-9" d="m179.25,329.13h0s.07,0,.1-.02c.03-.01.06-.03.08-.05.02-.02.04-.05.05-.08.02-.03.02-.06.02-.1v-.07s-.04-.08-.07-.11l-.05-.04s-.08-.03-.13-.03h0s-.07,0-.1.02c-.03.01-.06.03-.08.05-.02.02-.04.05-.05.08-.02.03-.02.06-.02.1v.07s.04.08.07.11l.05.04s.08.03.13.03h0Z"/>
  <path class="cls-9" d="m179.39,329.11c.32,0,.32-.5,0-.5s-.32.5,0,.5h0Z"/>
  <path class="cls-9" d="m179.45,329.08s-.07.02-.04.01c.02,0,.03,0,.05,0,.03,0,.07,0,.1-.01.13-.01.23-.08.25-.22.02-.12-.06-.25-.18-.27-.11-.02-.23,0-.31.09-.07.08-.09.17-.05.27s.13.15.23.15c.1,0,.19-.03.28-.04.01,0,.03,0,.04,0h-.03s.04,0,.06,0c.04,0,.09,0,.13-.01.17-.02.35-.03.51-.1.06-.03.11-.05.15-.11.03-.05.04-.13.03-.19-.04-.12-.18-.23-.31-.17-.07.03-.15.05-.22.06-.01,0-.07.01-.01,0-.02,0-.03,0-.05,0-.04,0-.08,0-.12.01-.09,0-.18.02-.27.03-.04,0-.08.01-.12.02-.02,0-.03,0-.05.01-.02,0-.01,0,.02,0-.01,0-.03,0-.04,0l.18.43-.18.04.07-.49c-.12.01-.25.02-.36.07s-.16.24-.09.34c.08.12.22.15.34.09h0Z"/>
  <path class="cls-9" d="m179.71,329.08c.25-.02.49-.05.74-.09.06,0,.12-.07.15-.11.03-.05.04-.13.03-.19s-.06-.12-.11-.15c-.06-.03-.12-.04-.19-.03-.08.01-.16.03-.24.04h.07c-.15.01-.29.03-.44.04-.07,0-.13.02-.18.07-.04.04-.08.11-.07.18s.02.13.07.18.11.08.18.07h0Z"/>
  <path class="cls-9" d="m179.94,328.76s.01.1.04.14c.03.05.05.07.1.1.06.04.15.05.22.03.03,0,.06-.02.09-.04.03-.02.05-.04.06-.07.02-.03.03-.06.03-.09,0-.03,0-.07,0-.1l-.03-.06s-.05-.07-.09-.09l-.06-.03s-.09-.01-.13,0c0,0,0,0,0,0h.07s0,0,0,0h.07s0,0,0,0l.06.03s0,0,0,0l.05.04s0,0,0,0l.04.05s0,0,0,0l.03.06s0,0,0,0v.07s0,0,0,0c0-.03,0-.07-.02-.1-.01-.03-.03-.06-.05-.08-.02-.02-.05-.04-.08-.05-.03-.02-.06-.02-.1-.02h-.07s-.08.04-.11.07l-.04.05s-.03.08-.03.13h0Z"/>
  <path class="cls-9" d="m174.92,329.18c.32,0,.32-.5,0-.5s-.32.5,0,.5h0Z"/>
  <path class="cls-9" d="m174.65,329.32c.66-.19,1.33-.31,2.01-.4.32-.05.65-.07.97-.14.25-.06.6-.19.51-.51s-.48-.27-.73-.26c-.33.01-.66.05-.99.12s-.64.18-.96.23c-.35.05-.71.05-1.07.02l.25.25s0,.03.04,0c.04-.01.08-.02.12-.03.1-.02.2-.03.3-.05.19-.03.39-.05.58-.07.39-.05.77-.11,1.13-.25.19-.07.26-.34.06-.46-.26-.15-.63-.11-.92-.09-.36.02-.71.06-1.07.06-.14,0-.29,0-.43-.04-.06-.01-.12-.03-.18-.05-.02-.01-.06-.04-.08-.04-.08-.06-.1.01-.06.21l.06-.03c.14-.03.28-.09.41-.13.15-.04.29-.09.43-.16.24-.11.51-.34.37-.63-.16-.33-.58-.18-.85-.11s-.63.14-.82.37-.13.55.13.68c.3.15.73.07,1.05.05.37-.03.79-.12,1.16-.06l-.15-.37s-.2.01-.24.01c-.13,0-.26,0-.39,0-.25,0-.49-.02-.74-.04-.32-.02-.32.48,0,.5.35.03.7.05,1.05.04.25-.01.62,0,.75-.26.06-.13.02-.34-.15-.37-.33-.05-.66-.01-.99.02-.18.02-.36.03-.53.04-.1,0-.2,0-.3,0-.05,0-.19-.03-.23,0-.06-.02-.06,0,0,.06.04-.02.07-.04.11-.05.07-.03.14-.05.21-.07.1-.03.19-.05.29-.08.03,0,.2-.02.22-.05.01-.17-.02-.21-.11-.14-.04.02-.08.04-.12.06-.06.03-.12.05-.19.07-.16.05-.32.09-.48.15-.25.09-.57.28-.35.58.17.23.54.3.8.34.34.04.69.01,1.03-.02.18-.01.36-.03.54-.04.15,0,.39-.05.52.03l.06-.46c-.48.18-.97.22-1.47.28-.42.05-1,.06-1.06.59-.02.14.13.24.25.25.56.03,1.1,0,1.65-.14.27-.07.54-.15.82-.19.14-.02.29-.03.44-.04.06,0,.13,0,.19,0,.02,0,.22.01.23,0l-.02-.26s-.06.02-.09.03c-.06.02-.12.03-.18.04-.15.03-.3.05-.45.07-.27.04-.55.07-.82.12-.55.09-1.1.19-1.63.35-.31.09-.18.57.13.48h0Z"/>
  <path class="cls-9" d="m174.35,329.43h.03c.32-.07.18-.53-.13-.49-.11.02-.17.07-.22.16-.09.15.02.4.22.38,1.43-.17,2.87-.34,4.3-.52l-.13-.47c-.22.15-.57.15-.83.18-.3.04-.6.06-.89.09-.31.03-.33.51,0,.5.68-.01,1.37-.03,2.04-.13.32-.05.18-.53-.13-.48-.63.09-1.27.1-1.91.11v.5c.35-.03.7-.07,1.05-.11.3-.04.66-.05.92-.23.18-.12.14-.5-.13-.47-1.43.18-2.86.35-4.3.52l.22.38.02-.04-.15.11h.05c-.04-.17-.09-.33-.13-.49-.06.01-.1.03-.15.05-.29.13-.04.56.25.43h0Z"/>
  <path class="cls-9" d="m178.35,328.69h-.1c-.13.02-.25.12-.25.26,0,.13.11.25.25.25.08,0,.17-.01.25-.03.29-.06.21-.48-.07-.49-.06,0-.11,0-.17.02-.25.06-.22.41,0,.48.07.02.14.02.21,0,.12-.03.2-.15.18-.27-.02-.11-.12-.23-.25-.22-.78.09-1.56.06-2.33.12-.13,0-.25.11-.25.25,0,.13.11.26.25.25.78-.06,1.56-.03,2.33-.12l-.07-.49h.05v.48s.02-.01.04,0l-.07-.49s-.07.01-.11.01v.5h.1c.13-.02.25-.12.25-.26,0-.13-.11-.26-.25-.25h0Z"/>
  <path class="cls-9" d="m174.62,329.47c.19,0,.38-.03.56-.05.03,0,.04-.04.03-.06,0-.03-.03-.04-.06-.03-.18.03-.36.04-.54.05-.06,0-.06.1,0,.1h0Z"/>
  <path class="cls-9" d="m174.88,329.44c.05,0,.1,0,.15,0,.02,0,.04,0,.07,0,0,0,0,0,0,0,0,0,.01,0,.02,0,.01,0,.02,0,.03,0,.03,0,.05-.02.05-.05s-.02-.05-.05-.05c-.05,0-.09,0-.14.02,0,0-.01,0-.02,0-.01,0,0,0,0,0-.01,0-.02,0-.03,0s-.02,0-.03,0c0,0,0,0-.01,0,0,0,0,0,0,0,0,0,0,0,0,0-.03,0-.06,0-.06.03,0,.02,0,.06.03.06h0Z"/>
  <path class="cls-9" d="m174.9,329.45c.89-.04,1.78-.1,2.67-.19.06,0,.06-.11,0-.1-.89.09-1.78.15-2.67.19-.06,0-.06.1,0,.1h0Z"/>
  <path class="cls-9" d="m176.84,329.32l.56-.04c.06,0,.06-.1,0-.1l-.56.04c-.06,0-.06.1,0,.1h0Z"/>
  <path class="cls-9" d="m175.58,329.36c.18,0,.35-.01.53-.01.06,0,.06-.1,0-.1-.18,0-.35,0-.53.01-.06,0-.06.1,0,.1h0Z"/>
  <path class="cls-9" d="m173.99,329.51l.69-.05c.06,0,.06-.1,0-.1l-.69.05c-.06,0-.06.1,0,.1h0Z"/>
  <path class="cls-9" d="m174.13,329.48s.01,0,0,0,0,0,0,0c0,0,.01,0,.02,0,.01,0,.03,0,.04,0,.03,0,.05,0,.08,0s.05-.02.05-.05c0-.03-.02-.05-.05-.05-.06,0-.11,0-.17,0-.01,0-.02.01-.03.02,0,.01,0,.03,0,.04s.01.02.02.03c.01,0,.02,0,.04,0h0Z"/>
  <path class="cls-9" d="m174.18,329.49l.5-.03c.06,0,.06-.1,0-.1l-.5.03c-.06,0-.06.1,0,.1h0Z"/>
  <path class="cls-9" d="m169.21,329.5c.25-.05.51-.08.77-.09.24-.02.48-.02.71-.09.06-.02.04-.09-.01-.1-.46-.05-.92.02-1.38.05l.04.08c.02-.05.16-.07.21-.08.08-.02.17-.04.25-.05.17-.03.34-.05.52-.07.06,0,.06-.09,0-.1-.17-.02-.34-.02-.5-.03-.08,0-.16,0-.24-.01-.05,0-.09,0-.14-.02-.03,0-.11,0-.13-.03l-.02.08c.14-.06.33-.04.48-.05.17,0,.34-.01.51-.01.06,0,.06-.1,0-.1-.17,0-.34,0-.5-.05l.03.07v-.02c.06-.04,0-.11-.06-.07-.02.01-.02.02-.03.04-.01.03,0,.06.03.07.17.05.35.05.53.05v-.1c-.18,0-.36,0-.54.02-.15,0-.33,0-.48.05-.04.01-.05.05-.02.08.05.06.15.06.22.06.09.01.18.02.28.02.2,0,.39,0,.59.03v-.1c-.2.03-.4.05-.6.09-.1.02-.19.04-.29.07-.06.02-.15.04-.18.11-.01.03,0,.08.04.08.46-.03.92-.1,1.38-.05v-.1c-.25.07-.51.07-.76.09s-.49.04-.74.09c-.06.01-.04.11.03.1h0Z"/>
  <path class="cls-9" d="m169.53,329.58c1-.07,1.98-.24,2.95-.51.31-.09.54-.45.44-.77s-.43-.53-.77-.44c-.45.13-.9.23-1.35.31-.11.02-.21.04-.32.05-.06,0-.12.02-.18.03-.05,0-.04,0,.03,0-.04,0-.07,0-.11.01-.23.03-.46.05-.69.07-.33.02-.64.27-.62.62.01.32.28.65.62.62h0Z"/>
  <path class="cls-9" d="m170.62,329.62c.5-.1,1-.16,1.51-.24s1-.18,1.43-.45c.28-.17.41-.57.22-.86s-.56-.41-.86-.22c-.05.03-.11.06-.17.09-.14.07.12-.04-.03.01-.11.04-.21.07-.32.1-.22.06-.45.09-.68.13-.48.08-.97.13-1.45.23-.32.06-.53.46-.44.77.11.34.42.5.77.44h0Z"/>
  <path class="cls-9" d="m171.93,329.55c.31-.04.61-.09.91-.16.32-.07.64-.15.93-.31s.4-.58.22-.86c-.19-.29-.55-.39-.86-.22-.04.02-.09.04-.13.06l.15-.06c-.24.1-.5.15-.75.2-.27.05-.54.1-.82.14-.14.02-.3.17-.37.29-.08.13-.11.33-.06.48s.14.3.29.37l.15.06c.11.03.22.03.33,0h0Z"/>
  <path class="cls-9" d="m173.42,328.09c.08.09.17.17.25.27l-.1-.13s.04.06.05.09l-.06-.15s.02.06.03.09l-.02-.17s0,.09,0,.13l.02-.17s0,.05-.02.07l.06-.15v.02s.05-.08.09-.13l-.02.02.13-.1s-.04.02-.06.03l.15-.06c-.17.07-.35.12-.49.26-.16.16-.25.42-.18.65.04.13.11.25.21.34.16.16.38.24.6.25.2.01.38-.06.55-.15l-.15.06h.01c-.11,0-.22,0-.33,0h0c-.15-.14-.29-.29-.44-.43h0v-.32h0s.04-.09.06-.14c0,.01-.01.02-.02.04l.1-.13s-.03.03-.05.04l.13-.1s-.06.04-.1.05l.15-.06c-.09.04-.18.06-.27.07l.17-.02c-.34.04-.68.02-1.02,0s-.64.3-.62.62c.02.35.27.61.62.62.41.02.82.03,1.22-.04.23-.04.49-.14.65-.32.08-.09.16-.2.19-.32.05-.21,0-.47-.16-.62-.15-.14-.33-.2-.53-.17-.11.02-.21.06-.31.11l.15-.06s-.07.03-.11.03l.17-.02s-.05,0-.08,0l.17.02s-.04,0-.06-.02l.15.06s-.05-.02-.07-.04l.13.1s-.03-.03-.04-.04l.1.13s-.02-.02-.02-.04l.09.32v-.02c-.03.11-.06.21-.09.32h0s-.07.07-.1.11h.01s-.08.06-.13.09c.03-.02.05-.03.08-.04l-.15.06c.09-.04.19-.07.28-.11.13-.06.22-.16.3-.27.14-.21.14-.5.09-.74-.04-.18-.15-.34-.28-.48-.07-.07-.14-.13-.2-.21-.09-.12-.3-.18-.44-.18-.15,0-.34.07-.44.18s-.19.28-.18.44l.02.17c.03.11.08.2.16.28h0Z"/>
  <path class="cls-9" d="m169.02,328.33c-1.39-.05-2.78-.12-4.16,0-.32.03-.64.27-.62.62s.27.6.62.62c1.1.08,2.2.08,3.31.01.33-.02.64-.27.62-.62-.01-.32-.28-.65-.62-.62-1.1.07-2.2.07-3.31-.01v1.25c1.39-.13,2.78-.06,4.16,0,.33.01.64-.3.62-.62-.02-.35-.27-.61-.62-.62h0Z"/>
  <path class="cls-9" d="m159.15,329.71c1.35,0,2.69-.05,4.04-.14.33-.02.64-.27.62-.62-.01-.32-.28-.65-.62-.62-1.34.09-2.69.14-4.04.14-.33,0-.64.29-.62.62s.27.63.62.62h0Z"/>
  <path class="cls-9" d="m158.88,328.84c.51-.04,1.01-.04,1.52-.04.24,0,.49,0,.73,0,.3,0,.68.02.94-.15.46-.29.37-.98-.15-1.14-.48-.15-1-.18-1.49-.29-.12-.03-.23-.06-.35-.09-.06-.02-.11-.04-.17-.06-.02,0-.19-.07-.12-.04s-.1-.05-.11-.05c-.05-.02-.1-.05-.15-.08-.04-.02-.11-.05-.14-.09.06.05.07.06.02.01-.05-.05-.05-.04.01.04l.09.32v-.03c-.1.18-.2.36-.31.54h.02c-.11.02-.21.05-.32.08.26-.03.54,0,.81,0,.33.01.64-.3.62-.62-.02-.35-.27-.61-.62-.62-.21,0-.41-.01-.62-.01-.15,0-.29,0-.43.06-.23.1-.4.32-.4.58,0,.52.56.82.98.99.39.16.78.28,1.19.35.39.07.78.1,1.16.22l-.15-1.14c.21-.04.26-.05.14-.04h-.06c-.07,0-.13.01-.2.01-.11,0-.22,0-.34.01-.23,0-.47,0-.7,0-.47,0-.94,0-1.41.04-.33.02-.64.27-.62.62.01.32.28.65.62.62h0Z"/>
  <path class="cls-9" d="m163.23,329.6c.43-.05.87-.09,1.3-.05l-.17-.02c.14.02.26.04.4.03.1,0,.2-.02.3-.03.17-.01.32-.06.44-.18.11-.11.19-.29.18-.44-.01-.31-.28-.66-.62-.62-.15.01-.31.04-.47.04l.17.02c-.26-.06-.54-.05-.81-.05-.24,0-.49.02-.73.05-.17.02-.31.06-.44.18-.11.11-.19.29-.18.44s.06.33.18.44c.11.1.28.2.44.18h0Z"/>
  <path class="cls-9" d="m149.88,329c1.8.17,3.61.3,5.41.4.89.05,1.77.09,2.66.12.63.02,1.57.23,2.04-.33.2-.24.28-.66,0-.88-1.29-1.05-2.97-.92-4.54-.96-.95-.02-1.91-.06-2.86-.13s-1.89-.07-2.75-.4l.15,1.14c.53-.4,1.53-.19,2.15-.18.9,0,1.81.02,2.71.02s1.73.02,2.6.02,1.74.07,2.56-.14c.4-.1.57-.57.37-.92-.36-.65-1.12-.62-1.77-.66-.9-.05-1.79-.07-2.69-.09s-1.72-.05-2.58-.11c-.43-.03-.86-.07-1.29-.13-.22-.03-1.03-.07-1.17-.28l-.37.92c.84-.12,1.73,0,2.57.03s1.68.06,2.52.08c1.66.04,3.32.07,4.97-.14.78-.1.83-1.22,0-1.25-1.6-.05-3.19-.11-4.78-.26-.77-.08-1.54-.18-2.3-.32-.71-.13-1.57-.22-2.18-.62l-.32,1.16c1.29.05,2.58.05,3.87-.02.71-.04.84-1,.17-1.23-1.24-.41-2.6-.36-3.8-.87l-.15,1.14c.45-.13,1.01,0,1.47.04.5.04,1,.08,1.5.12.8.07.8-1.18,0-1.25-.57-.05-1.13-.09-1.7-.14-.54-.04-1.07-.13-1.6.02-.47.13-.67.92-.15,1.14,1.32.56,2.75.55,4.1,1l.17-1.23c-1.29.07-2.58.08-3.87.02-.65-.03-.81.84-.32,1.16.63.41,1.44.54,2.17.68.83.17,1.68.29,2.53.38,1.73.19,3.46.25,5.19.31v-1.25c-1.72.22-3.45.18-5.18.14s-3.52-.32-5.21-.07c-.39.06-.57.61-.37.92.4.61,1.11.73,1.79.84.86.14,1.74.2,2.61.24s1.72.06,2.58.08c.43.01.86.02,1.29.04.11,0,1.18-.01,1.23.07l.37-.92c-.87.22-1.88.1-2.77.09s-1.81-.02-2.71-.02-1.81-.02-2.71-.02c-.72,0-1.52-.1-2.13.36-.45.33-.38.94.15,1.14.77.29,1.64.33,2.45.39.88.07,1.76.12,2.64.15.83.03,1.67.03,2.51.07.69.03,1.44.1,2,.55v-.88s-.74-.02-.94-.03c-.35-.01-.71-.03-1.06-.04-.82-.03-1.63-.08-2.44-.12-1.59-.09-3.19-.22-4.78-.36-.8-.07-.8,1.18,0,1.25h0Z"/>
  <path class="cls-9" d="m138.68,327.38c.35.37.8.4,1.28.48.62.09,1.25.18,1.87.27,1.15.16,2.3.31,3.45.46s2.34.29,3.52.42c.68.07,2.29.37,2.4-.67.1-.91-1.39-1.22-2.03-1.37-1.08-.27-2.2-.39-3.31-.49-2.29-.2-4.67-.24-6.8-1.23l-.32,1.16c2.11.17,4.22.34,6.33.51,2,.16,4.02.42,6-.04.65-.15.54-1,0-1.21-1.63-.62-3.37-.58-5.08-.65-1.81-.08-3.59-.28-5.33-.82l-.17,1.23c2.48.05,4.96.1,7.44-.08.65-.05.91-1.1.17-1.23-2.25-.38-4.54-.14-6.78-.56l-.17,1.23c1.02-.03,2.04-.08,3.06-.16.74-.06,1.93.08,2.39-.61.22-.32,0-.84-.37-.92-1.63-.33-3.3-.25-4.92-.64l-.17,1.23c2.25-.03,4.5-.14,6.75-.33.82-.07.79-1.15,0-1.25-1.9-.24-3.84-.09-5.69-.64l-.17,1.23,4.3-.3c.8-.06.8-1.19,0-1.25l-3.72-.26v1.25l3.6-.08c.8-.02.81-1.27,0-1.25l-3.6.08c-.81.02-.8,1.19,0,1.25l3.72.26v-1.25l-4.3.3c-.69.05-.87,1.02-.17,1.23,1.96.58,4.01.43,6.02.68v-1.25c-2.25.19-4.5.29-6.75.33-.69,0-.87,1.06-.17,1.23,1.62.38,3.29.31,4.92.64l-.37-.92-.07.1.37-.29c-.72.21-1.58.18-2.32.23-.78.05-1.57.09-2.36.11-.68.02-.88,1.09-.17,1.23,2.24.43,4.54.18,6.78.56l.17-1.23c-2.48.18-4.96.13-7.44.08-.72-.02-.83,1.02-.17,1.23,1.69.52,3.45.74,5.21.84s3.53,0,5.2.63v-1.21c-1.93.46-3.96.14-5.91-.02s-4.06-.33-6.09-.49c-.6-.05-.87.91-.32,1.16,1.84.86,3.83,1.12,5.84,1.28,1.08.09,2.16.14,3.23.31.51.08,1.02.17,1.53.31.19.05.38.1.56.17.13.05.26.1.39.17.2.12.23.13.07.01l-.06-.48-.03.09.29-.37c-.26.16-.93.01-1.22-.02-.47-.05-.93-.11-1.4-.16-.9-.11-1.8-.22-2.7-.33s-1.84-.24-2.76-.37c-.47-.06-.94-.13-1.4-.2-.27-.04-1-.02-1.2-.22-.56-.58-1.44.3-.88.88h0Z"/>
  <path class="cls-9" d="m129.82,325.97c2.03.45,4.06.87,6.1,1.28.82.17,5.21,1.31,4.36-.85-.31-.79-1.31-1.07-2.06-1.22-.93-.19-1.88-.23-2.83-.3-2.02-.15-3.89-.85-5.85-1.32l-.17,1.23c3.95.34,7.89.68,11.84,1.02.8.07.8-1.18,0-1.25-3.95-.34-7.89-.68-11.84-1.02-.7-.06-.85,1.07-.17,1.23,1.67.4,3.29,1.01,5,1.24.39.05,4.99.42,4.87.8l.29-.37c-.2.15-.79,0-1.02-.02-.4-.04-.8-.11-1.2-.19-.79-.15-1.58-.32-2.37-.48-1.55-.32-3.09-.64-4.63-.98-.78-.17-1.12,1.03-.33,1.21h0Z"/>
  <path class="cls-9" d="m138.17,325.83c-.57-.22-1.16-.38-1.76-.48-.17-.03-.33-.03-.48.06-.13.08-.25.22-.29.37-.04.16-.03.34.06.48.08.13.22.26.37.29.6.1,1.19.27,1.76.48.14.05.35.01.48-.06s.25-.22.29-.37c.04-.16.03-.34-.06-.48s-.21-.23-.37-.29h0Z"/>
  <path class="cls-9" d="m117.48,322.63c.86.56,1.94.84,2.9,1.16,1.02.35,2.05.64,3.1.86,2.2.46,4.42.8,6.63,1.19.79.14,1.12-1.07.33-1.21-2.13-.37-4.28-.71-6.4-1.14-1.02-.2-2.02-.47-3-.79s-2.08-.59-2.94-1.15c-.68-.44-1.3.64-.63,1.08h0Z"/>
  <path class="cls-9" d="m129.96,324.79c-.85-.15-1.69-.33-2.53-.53-.32-.08-.69.1-.77.44s.1.69.44.77c.84.21,1.68.38,2.53.53.17.03.33.03.48-.06.13-.08.25-.22.29-.37.07-.3-.09-.71-.44-.77h0Z"/>
  <path class="cls-9" d="m129.13,323.39c-3.83-.45-7.62-1.17-11.36-2.15-.78-.2-1.11,1-.33,1.21,3.84,1,7.74,1.73,11.69,2.19.8.09.79-1.16,0-1.25h0Z"/>
  <path class="cls-9" d="m119.11,323.14c1.39.16,2.76.5,4.13.76.68.13,1.36.24,2.05.31s1.39.08,2.08.2c.79.13,1.13-1.07.33-1.21-.72-.12-1.45-.15-2.18-.22s-1.41-.19-2.11-.32c-1.43-.28-2.85-.61-4.31-.78-.34-.04-.62.32-.62.62,0,.37.29.59.62.62h0Z"/>
  <path class="cls-9" d="m125.41,322.32c-2.32-.6-4.72-.71-7.01-1.45-.77-.25-1.1.96-.33,1.21,2.29.74,4.69.85,7.01,1.45.78.2,1.11-1,.33-1.21h0Z"/>
  <path class="cls-9" d="m117.75,322.08c4.51.74,9.02,1.57,13.57,2.09.8.09.79-1.16,0-1.25-4.43-.51-8.83-1.32-13.24-2.04-.79-.13-1.13,1.08-.33,1.21h0Z"/>
  <path class="cls-9" d="m106.91,319.27c1.1.34,2.19.71,3.26,1.13l.33-1.21c-.5-.18-1-.35-1.51-.53-.72-.25-1.01.75-.48,1.14.61.46,1.48.53,2.18.83.81.35,1.62.67,2.46.94,1.74.55,3.5,1.17,5.29,1.51.79.15,1.12-1.06.33-1.21-1.72-.32-3.41-.92-5.08-1.44-.84-.26-1.65-.57-2.46-.92-.35-.15-.71-.3-1.08-.41s-.7-.15-1.01-.38l-.48,1.14c.5.18,1,.35,1.51.53.77.27,1.07-.92.33-1.21-1.08-.41-2.16-.79-3.26-1.13-.77-.24-1.1.97-.33,1.21h0Z"/>
  <path class="cls-9" d="m117.56,320.87c-3.42-1.39-6.9-2.59-10.45-3.6-.78-.22-1.11.99-.33,1.21,3.55,1.01,7.04,2.21,10.45,3.6.74.3,1.07-.91.33-1.21h0Z"/>
  <path class="cls-9" d="m94.8,314.04c2.62,1.37,5.39,2.44,8.12,3.57.31.13.69-.14.77-.44.1-.36-.12-.64-.44-.77-2.63-1.09-5.29-2.12-7.82-3.44-.71-.37-1.35.71-.63,1.08h0Z"/>
  <path class="cls-9" d="m102.27,317.48c1.36.63,2.74,1.2,4.15,1.72.31.12.61.23.91,0,.24-.18.35-.49.35-.78,0-.67-.49-1.16-1.04-1.47-1.21-.66-2.62-.88-3.93-1.25s-2.69-.83-3.93-1.53c-.7-.4-1.33.68-.63,1.08,1.37.77,2.86,1.28,4.37,1.7.73.2,1.48.37,2.21.59.39.11.78.24,1.14.42.14.07.3.14.42.25.05.04.09.08.12.13.01.13.04.11.1-.07l.44-.18c-.13-.02-.36-.16-.5-.21-.15-.06-.3-.11-.45-.17-.35-.14-.7-.27-1.04-.42-.69-.28-1.38-.59-2.06-.9-.73-.33-1.36.74-.63,1.08h0Z"/>
  <path class="cls-9" d="m91.9,311.85v.15c0,.09.01.17.05.24.03.08.07.14.13.2.06.06.12.1.2.13.07.04.15.06.24.05l.17-.02c.11-.03.2-.08.28-.16l.1-.13c.06-.1.08-.2.09-.32v-.15c0-.09-.01-.17-.05-.24-.03-.08-.07-.14-.13-.2-.06-.06-.12-.1-.2-.13-.07-.04-.15-.06-.24-.05l-.17.02c-.11.03-.2.08-.28.16l-.1.13c-.06.1-.08.2-.09.32h0Z"/>
  <path class="cls-9" d="m91.92,311.56c.01.14-.01.29-.03.43s-.04.29-.05.44c0,.09.01.17.05.24.03.08.07.14.13.2.06.06.12.1.2.13.07.04.15.06.24.05.16,0,.33-.06.44-.18l.1-.13c.06-.1.08-.2.09-.32.02-.15.04-.29.05-.44s.04-.28.03-.43c0-.09-.01-.17-.05-.24-.03-.08-.07-.14-.13-.2-.06-.06-.12-.1-.2-.13-.07-.04-.15-.06-.24-.05-.16,0-.33.06-.44.18s-.2.28-.18.44h0Z"/>
  <path class="cls-9" d="m92.2,313.02c.43.19.86.4,1.29.62.24.12.47.25.71.35.1.04.2.07.3.11.06.02.11.04.17.06.03.01.22.09.06.02.16.07.31.11.48.06.14-.04.3-.15.37-.29.14-.27.1-.72-.22-.86-.24-.1-.49-.19-.74-.28-.06-.03-.06-.02.02.01-.03-.01-.05-.02-.08-.04-.04-.02-.08-.04-.12-.06-.11-.06-.21-.11-.32-.17-.42-.22-.85-.42-1.29-.62-.16-.07-.31-.11-.48-.06-.14.04-.3.15-.37.29-.14.27-.09.71.22.86h0Z"/>
  <path class="cls-9" d="m93.93,313.81c.8,0,.81-1.25,0-1.25s-.81,1.25,0,1.25h0Z"/>
  <path class="cls-9" d="m93.9,313.81c.8,0,.81-1.25,0-1.25s-.81,1.25,0,1.25h0Z"/>
  <path class="cls-9" d="m93.64,313.67c.8,0,.81-1.25,0-1.25s-.81,1.25,0,1.25h0Z"/>
  <path class="cls-9" d="m92.53,312.36c.8,0,.81-1.25,0-1.25s-.81,1.25,0,1.25h0Z"/>
  <path class="cls-9" d="m92.01,311.36l-.02.03c-.05.07-.07.15-.07.23-.02.08-.01.17.01.25.02.08.06.15.11.21.04.07.1.12.18.16l.15.06c.11.03.22.03.33,0l.15-.06c.09-.06.17-.13.22-.22l.02-.03c.05-.07.07-.15.07-.23.02-.08.01-.17-.01-.25-.02-.08-.06-.15-.11-.21-.04-.07-.1-.12-.18-.16l-.15-.06c-.11-.03-.22-.03-.33,0l-.15.06c-.09.06-.17.13-.22.22h0Z"/>
  <path class="cls-9" d="m91.9,311.72v.03c0,.09.01.17.05.24.03.08.07.14.13.2.06.06.12.1.2.13.07.04.15.06.24.05l.17-.02c.11-.03.2-.08.28-.16l.1-.13c.06-.1.08-.2.09-.32v-.03c0-.09-.01-.17-.05-.24-.03-.08-.07-.14-.13-.2-.06-.06-.12-.1-.2-.13-.07-.04-.15-.06-.24-.05l-.17.02c-.11.03-.2.08-.28.16l-.1.13c-.06.1-.08.2-.09.32h0Z"/>
  <path class="cls-9" d="m95.65,311.69c-.08.68,0,1.38.19,2.04l1.04-.61c-.16-.17-.33-.33-.52-.48-.26-.2-.64-.27-.88,0-.23.25-.25.63,0,.88.41.41,1,.65,1.51.93.26.14.52.28.78.43.28.15.55.33.86.41.55.15.94-.44.71-.92-.17-.34-.54-.6-.82-.85s-.58-.52-.85-.8-.42-.45-.6-.79c-.01-.02-.04-.09-.02-.03-.02-.04-.03-.08-.04-.12-.03-.08-.05-.17-.06-.25.01.09,0-.03,0-.06,0-.04,0-.09,0-.13.01-.1-.02.07,0-.02,0-.01.04-.14,0-.06.13-.3.1-.68-.22-.86-.27-.14-.72-.1-.86.22-.2.47-.25.97-.1,1.47.14.46.41.86.72,1.22.27.32.58.61.89.9.15.14.31.28.46.41.08.08.17.15.25.23.03.03.07.06.1.09.1.09-.02-.07.04.06l.71-.92c-.17-.04.09.06-.07-.02-.06-.03-.11-.06-.17-.09-.12-.06-.24-.13-.36-.2-.25-.14-.5-.27-.75-.41s-.48-.26-.72-.39c-.11-.06-.23-.12-.34-.19-.05-.03-.1-.06-.15-.1.08.06-.03-.04-.05-.06l-.88.88c.19.15.36.31.52.48.42.46,1.22-.02,1.04-.61-.04-.15-.08-.29-.11-.44-.03-.17-.04-.17-.05-.36-.02-.3-.02-.61.02-.91.04-.33-.31-.64-.62-.62-.37.02-.58.28-.62.62h0Z"/>
  <path class="cls-9" d="m92.12,312.86c.32,0,.32-.5,0-.5s-.32.5,0,.5h0Z"/>
  <path class="cls-9" d="m92.09,312.86c.32,0,.32-.5,0-.5s-.32.5,0,.5h0Z"/>
  <path class="cls-9" d="m92.08,312.84c.32,0,.32-.5,0-.5s-.32.5,0,.5h0Z"/>
  <path class="cls-9" d="m92.33,312.55h0s0-.08-.02-.11c-.01-.03-.03-.06-.05-.08-.02-.02-.05-.04-.08-.05-.03-.02-.06-.02-.1-.02h-.07s-.08.04-.11.07l-.04.05s-.03.08-.03.13h0s0,.08.02.11c.01.03.03.06.05.08.02.02.05.04.08.05.03.02.06.02.1.02h.07s.08-.04.11-.07l.04-.05s.03-.08.03-.13h0Z"/>
  <path class="cls-9" d="m96.08,310.21c.43.82.63,1.74,1.09,2.54.12.2.5.13.47-.13-.06-.48-.19-.94-.34-1.39-.07-.22-.15-.44-.22-.66-.06-.18-.18-.43-.1-.62h-.48c.02.08.04.16.06.24.08.31.56.18.48-.13-.02-.08-.04-.16-.06-.24-.03-.11-.13-.18-.24-.18-.12,0-.2.08-.24.18-.1.23-.02.49.05.71s.15.46.22.69c.15.46.31.92.37,1.4l.47-.13c-.46-.8-.66-1.72-1.09-2.54-.15-.28-.58-.03-.43.25h0Z"/>
  <path class="cls-9" d="m99.49,275.89c-1.28,5.99-2.59,11.99-3.6,18.03-.52,3.11-.94,6.25-1,9.41-.05,2.81-.06,6.05,1.22,8.63s4.13,3.97,6.69,4.97,5.3,1.51,7.94,2.28,6.38,2.27,8.67-.07c1.11-1.13,1.03-2.86.19-4.1-.76-1.14-2.12-1.85-3.33-2.43-2.47-1.18-5.11-1.88-7.73-2.65-1.22-.36-2.46-.72-3.63-1.23-.56-.24-1.11-.53-1.64-.84-.26-.16-.52-.32-.78-.49-.08-.06-.16-.11-.24-.16-.35-.38-.4-.3-.17.23l-.34,1.26.15-.24-.9.9c-.43.31-.57-.04-.07.07.32.08.64.13.96.19.76.15,1.51.32,2.26.48,1.43.31,2.86.61,4.31.81,2.98.41,6.01.44,8.88-.58,1.45-.52,2.41-2.22,1.49-3.67-2.92-4.6-8.29-5.43-13.32-5.62-1.25-.05-2.55-.23-3.8-.21-.87.01-.4-.71-.63,1.13-.18,1.49-.46,1.28.37,1.08.71-.17,1.42-.21,2.15-.24,2.9-.08,5.79.02,8.68-.16,2.4-.15,6.22,0,7.66-2.37.88-1.45.26-3.15-1.05-4.07-1.17-.82-2.54-1.01-3.94-1.09-2.92-.15-5.82.35-8.7.74-1.27.17-2.55.33-3.83.39-.28.01-.65-.06-.91.03h-.2c-.15-.01-.15.02,0,.1l.11.09c-.71,1.33-.73,1.98-.07,1.96.23.03.63-.15.87-.19,3.07-.52,6.24-.42,9.34-.65s7.16-.17,8.36-3.46c.6-1.64-.93-3.05-2.41-3.16-4.07-.31-7.97.98-11.99,1.24-.91.06-1.84.08-2.74-.02-.32-.04-.82-.26-1.12-.22l-.15-.04.51,2.31c.18.06.42-.07.61-.1,1.93-.31,3.91-.37,5.85-.48s3.92-.25,5.87-.51,4.42-.49,6.2-1.48c2.44-1.37,1.58-4.53-.8-5.34-2.12-.72-4.45-.26-6.6.04-2.3.33-4.59.72-6.91.89-1.18.09-2.36.13-3.55.08-.56-.02-1.14-.04-1.69-.13-.08-.01-.37-.12-.43-.1-.21-.07-.2-.05.03.06.23.17.24.14.02-.1l.64,1.1v.55c-.21.37-.42.74-.64,1.1-.35.41-.38.06.1.02s.93-.1,1.4-.14c.94-.08,1.88-.13,2.82-.16,1.73-.07,3.45-.1,5.18-.18,1.94-.09,3.88-.26,5.8-.56,1.72-.27,3.69-.63,4.39-2.46.79-2.07-.8-3.78-2.78-4.08s-3.88.03-5.82.3c-1.74.24-3.48.47-5.24.56-.94.04-1.88.04-2.82-.02-.61-.04-1.48-.03-1.92-.37l.9.9-.15-.26.34,1.26-.02.16-.64,1.1c-.09.1-.15-.03.04.02.3.08,1.13-.12,1.45-.15.89-.08,1.77-.14,2.66-.19,1.86-.11,3.72-.16,5.58-.24s3.55-.17,5.32-.34c1.91-.19,3.98-.19,5.45-1.57,1.02-.96.89-2.56,0-3.54-2.16-2.38-5.86-1.86-8.73-1.58-3.25.32-6.56.93-9.84.64-.22-.02-.46-.11-.57-.1-.83.12-.59,2.2.29,2.19.67-.01,1.4-.19,2.07-.26,1.7-.18,3.4-.31,5.1-.4,2.99-.15,6.64.46,8.55-2.39.86-1.29.03-3.36-1.49-3.67-5.21-1.08-10.5-1.83-15.81-2.25-1.35-.11-2.5,1.22-2.5,2.5,0,1.44,1.15,2.39,2.5,2.5,4.87.38,9.69,1.07,14.48,2.07l-1.49-3.67c.41-.61.38-.14.02-.22-.03,0-.51.02-.61.02-.97.03-1.95.04-2.92.08-1.87.08-3.73.22-5.59.41-1.75.18-3.74.17-5.24,1.2-1.66,1.14-2.2,3.35-1.09,5.06,1,1.54,2.85,1.84,4.54,1.94,1.8.11,3.6-.01,5.39-.19,1.88-.19,3.75-.45,5.63-.58.94-.07,3.07-.54,3.78.24v-3.54c.41-.38-.23-.08-.47-.05-.48.07-.96.11-1.44.16-.96.09-1.93.16-2.9.22-1.94.12-3.88.17-5.82.26s-3.71.18-5.56.37-3.9.42-4.82,2.33.37,3.86,2.24,4.46c1.75.56,3.83.59,5.65.53,1.96-.06,3.91-.33,5.86-.59.8-.11,1.6-.23,2.4-.31.47-.05.95-.09,1.42-.1.24,0,.47,0,.71,0,.44.07.38-.02-.17-.25l-.73-1.77.03.26.34-1.26c.74-.48.78-.6.11-.38-.23.05-.46.09-.69.13-.43.08-.86.15-1.29.2-.97.12-1.96.19-2.94.25-1.88.11-3.76.14-5.65.21-2.92.11-10.48-.14-9.02,4.86.58,1.99,2.6,2.58,4.42,2.8,1.96.24,3.94.2,5.91.03s4.08-.49,6.11-.79c.87-.13,1.75-.27,2.63-.37.46-.05.92-.1,1.38-.11.4,0,1.36.3.92-.14l-.73-1.77.03.23.73-1.77c.44-.28.39-.31-.13-.1-.22.06-.43.12-.65.18-.44.11-.87.21-1.31.3-.89.18-1.78.32-2.67.41-1.81.19-3.62.28-5.43.39-2.03.12-4.08.26-6.09.58s-3.58,1.4-3.96,3.41c-.88,4.66,5.67,4.73,8.66,4.45,3.79-.35,7.5-1.47,11.33-1.19l-2.41-3.16-.1.28.64-1.1c-.14.17-1.22.29-1.67.36-.88.13-1.77.2-2.65.27-1.91.14-3.82.18-5.73.3-3,.19-8.81.21-8.81,4.51,0,4.78,6.17,3.87,9.2,3.47,1.81-.24,3.61-.53,5.43-.69.94-.08,1.89-.13,2.84-.11.42,0,1.51-.09,1.8.24l-.64-1.1.06.25.25-1.93c.23-.52.44-.34-.17-.22-.36.07-.72.09-1.08.13-1.05.1-2.09.18-3.14.23-1.94.1-3.87.12-5.81.1-2.97-.02-9.91.07-8.59,4.95,1.08,3.97,6.86,3.19,9.98,3.36,2.69.15,6.04.6,7.61,3.08l1.49-3.67c-3.63,1.3-7.34.46-10.98-.33-1.78-.39-3.92-1.15-5.73-.56-2.5.82-2.8,3.82-1.15,5.6,2.28,2.46,5.95,3.6,9.06,4.52,1.57.46,3.16.88,4.71,1.42.62.22,1.23.45,1.83.73.34.16.67.33.99.51.22.12.43.25.64.38.54.43.5.2-.12-.71l.34-1.26.03-.04,1.1-.64c-1.69.68-4.06-.62-5.71-1.07-2.03-.55-4.09-1-6.08-1.69-1.44-.5-3.52-1.23-4.34-2.63-.87-1.5-.71-3.81-.72-5.47-.02-4.52.77-8.97,1.62-13.39s1.83-9.14,2.8-13.69c.67-3.14-4.15-4.48-4.82-1.33h0Z"/>
  <path class="cls-9" d="m98.42,312.04c2.75.55,5.5,1.1,8.25,1.65.66.13,1.33.1,1.93-.25.52-.3,1.01-.9,1.15-1.49.28-1.24-.37-2.8-1.75-3.08-2.75-.55-5.5-1.1-8.25-1.65-.66-.13-1.33-.1-1.93.25-.52.3-1.01.9-1.15,1.49-.28,1.24.37,2.8,1.75,3.08h0Z"/>
  <path class="cls-9" d="m108.15,315.35c5.8,5.18,13.22,7.66,20.75,9.06,3.86.71,7.77,1.29,11.68,1.66,4.25.4,8.5.15,12.37-1.78,1.81-.9,1.53-4.25-.6-4.57-7.37-1.12-14.75-2.2-22.12-3.38-3.57-.57-7.14-1.18-10.68-1.9-1.67-.34-3.35-.68-4.99-1.13-.87-.24-1.74-.49-2.57-.82-.36-.14-.7-.3-1.05-.47-.16-.08-.99-.72-.62-.32l.64,1.1-.07-.21v1.33l.04-.19-.64,1.1c-.53.64-.56.12-.54.29.01.08,1.24.22,1.45.25.96.17,1.93.33,2.9.48,1.93.31,3.87.6,5.81.87,4.02.56,8.05,1.04,12.09,1.42,7.88.74,15.79,1.13,23.7,1.18,2.85.02,3.35-4.11.66-4.91-8.28-2.47-16.84-3.75-25.36-5.06-4.19-.65-8.38-1.31-12.54-2.15s-8.37-1.62-12.08-3.61l-.6,4.57c.7-.24,1.29-.02,2,.14.94.21,1.88.43,2.81.65,1.88.44,3.75.89,5.63,1.35,3.83.92,7.66,1.84,11.5,2.68,7.65,1.66,15.4,2.97,23.22,3.31,2.38.11,3.53-3.61,1.26-4.66-13.06-6.03-27.72-7.62-40.58-14.1l-1.93,4.57c14.08,4.41,28.15,8.81,42.23,13.22,1.29.4,2.73-.48,3.08-1.75.39-1.42-.49-2.58-1.75-3.08-12.95-5.14-27.57-7.87-38.36-17.26-.85-.74-2.02-.98-3.03-.39-.88.51-1.56,1.81-1.15,2.82,1.66,4.09,3.64,8.02,6.05,11.72,1.2,1.84,2.5,3.61,3.87,5.34s2.74,3.4,5.15,3.51c1.54.06,2.95-1.66,2.41-3.16-3.18-8.91-6.36-17.83-9.54-26.74-1.08-3.02-5.48-1.84-4.82,1.33.59,2.85,1.18,5.71,1.77,8.56.51,2.48.74,5.44,2.32,7.51,1.14,1.49,3.22,1.71,4.32,0,1.29-2.02,1.49-4.4,1.4-6.74-.09-2.48-.38-4.96-.73-7.42-.71-4.97-1.87-9.86-3.03-14.74l-4.82,1.33c2.38,8.55,3.08,17.38,3.75,26.19.12,1.62,1.5,2.85,3.16,2.41,2.96-.77,2.98-4.12,3.15-6.6.19-2.74.16-5.5-.07-8.24-.47-5.49-1.69-10.87-3.71-16-1.17-2.98-5.41-1.88-4.82,1.33,2.06,11.14,5.24,22.05,9.5,32.55,1.04,2.57,4.7,2.28,4.91-.66.82-11.76-1.19-23.49-3.93-34.88l-4.82,1.33c3.57,11.95,7.47,23.8,11.71,35.53,1.11,3.07,5.3,1.83,4.82-1.33-.81-5.3-2.06-10.52-3.57-15.66s-3.02-9.95-4.92-14.76c-.89-2.26-1.92-4.65-3.6-6.46-2.27-2.46-5.19-.1-5.98,2.4-1.58,4.99-.62,10.72.32,15.74,1.09,5.85,2.9,11.51,5.22,16.99.89,2.11,4,1.26,4.57-.6.85-2.78.5-5.66-.16-8.44s-1.5-5.6-2.38-8.35c-1.79-5.63-3.92-11.15-6.22-16.59l-4.32,2.52c6.07,10.69,8.38,22.99,13.62,34.06,1.03,2.17,4.94,1.19,4.66-1.26-1.37-11.74-3.62-23.36-6.81-34.74l-4.57,1.93c4.93,11.24,6.69,23.57,11.76,34.78.4.88,1.61,1.33,2.49,1.19,1.04-.16,1.71-.82,2.08-1.79.99-2.61.75-5.42.22-8.1s-1.28-5.27-2.11-7.84c-1.69-5.25-3.84-10.34-6.13-15.36-.56-1.23-2.34-1.53-3.42-.9-1.27.74-1.45,2.18-.9,3.42,4.55,10.1,6.73,21.27,13.15,30.48,1.09,1.57,4.18,1.71,4.57-.6.62-3.64-.6-7.11-1.64-10.56s-2.14-6.72-3.34-10.03c-2.44-6.68-5.25-13.22-8.39-19.59-1.42-2.89-5.74-.35-4.32,2.52,6.4,12.96,9.29,27.35,16.03,40.17.97,1.84,4.14,1.5,4.57-.6.71-3.5-.85-7.15-1.88-10.46s-2.12-6.61-3.29-9.88c-2.36-6.59-5.03-13.07-7.97-19.43-.67-1.44-2.91-1.61-3.93-.51-1.86,2.01-2.42,4.5-2.84,7.12-.51,3.18-1.01,6.36-1.52,9.54s-.98,6.2-1.48,9.29c-.25,1.55-.49,3.1-.74,4.65l-.39,2.45c-.05.33-.1.65-.16.98-.03.22-.06.44-.11.65-.1.38.03.25.39-.4l1.26-.34-.34-.02,1.26.34c.18.3.14.25-.12-.16l-.22-.35c-.25-.42-.48-.84-.7-1.28-.28-.57-.76-1.46-.69-2.07l-.34,1.26.14-.21-.9.9c-.67.44-1.39-.2-.34.51.5.34.99.69,1.48,1.05.99.71,1.98,1.45,2.94,2.2,1.96,1.55,3.86,3.17,5.7,4.85l3.54-3.54c-3.73-3.28-7.77-6.2-12.08-8.67-1.74-1-3.62.3-3.76,2.16-.34,4.4,4.04,7.89,7.26,10.14,1.74,1.21,4.18,3.03,6.42,2.5s3.02-2.73,2.97-4.75c-.06-2.33-.52-4.71-.79-7.03-.28-2.45-.56-4.89-.84-7.34-.57-4.97-1.14-9.94-1.71-14.92l-4.66,1.26c5.17,8.95,5.47,19.79,10.55,28.82,1.18,2.1,4.79,1.25,4.66-1.26-.62-11.66-5.58-22.4-7.45-33.83l-4.57,1.93c5.06,11.33,5.44,24.2,11.59,35.14,1.15,2.05,4.9,1.27,4.66-1.26-1.07-11.11-4.32-21.75-7.66-32.35l-4.57,1.93c5.22,11.3,9.98,23.07,16.98,33.41.7,1.03,1.94,1.54,3.12,1.02,1.08-.48,1.85-1.75,1.45-2.95-4.04-12.11-9.42-23.76-16.06-34.66-.64-1.06-1.98-1.52-3.12-1.02-1.04.46-1.91,1.77-1.45,2.95,4.72,11.98,7.74,25.14,16.99,34.67,2.03,2.09,5.22-.56,3.93-3.03-3.66-6.99-8.75-13.23-14.89-18.18-1.96-1.58-4.66-.12-4.18,2.43,1.28,6.72,4.12,13.14,8.26,18.59.87,1.14,2.8,1.89,3.93.51,1.6-1.98,1.67-4.14,1.4-6.58-.3-2.67-.74-5.33-1.31-7.96-1.1-5.07-2.63-10.03-4.16-14.98-.82-2.65-4.92-2.22-4.91.66.02,5.19.32,10.37.93,15.53.54,4.59,1.2,9.26,3.7,13.25,1.12,1.78,4.01,1.54,4.57-.6,1.54-5.89.21-12.14-1.02-17.97s-2.93-11.83-4.6-17.7l-4.57,1.93c5.73,11.66,8.64,24.66,17,34.91,1.51,1.85,4.09.15,4.27-1.77.26-2.89-.33-5.78-1.1-8.56s-1.62-5.5-2.51-8.22c-1.79-5.45-3.77-10.84-5.84-16.19-.49-1.26-1.68-2.13-3.08-1.75-1.27.35-2.15,1.78-1.75,3.08,3.36,10.67,6.77,21.35,11.51,31.51.52,1.11,2.08,1.48,3.12,1.02,1.21-.53,1.67-1.69,1.45-2.95-1.86-10.5-5.4-20.58-8.95-30.61l-4.57,1.93c5.53,9.15,8.05,19.88,14.48,28.52,1.65,2.21,5.22.99,4.57-1.93-2.01-9.07-4.53-18.02-7.53-26.81-1.03-3.02-5.62-1.82-4.82,1.33,2.33,9.19,5.25,18.22,8.73,27.04,1.18,2.99,5.38,1.87,4.82-1.33-1.33-7.56-3.42-14.98-6.27-22.12-1.42-3.56-3-7.05-4.76-10.45s-4.02-6.84-5.74-10.41c-.59-1.22-2.32-1.54-3.42-.9-1.24.73-1.49,2.2-.9,3.42,1.66,3.43,3.77,6.63,5.54,10.01s3.27,6.64,4.63,10.07c2.76,7.01,4.8,14.28,6.1,21.7l4.82-1.33c-3.48-8.82-6.4-17.85-8.73-27.04l-4.82,1.33c3,8.79,5.52,17.74,7.53,26.81l4.57-1.93c-6.43-8.64-8.96-19.36-14.48-28.52-1.41-2.34-5.55-.83-4.57,1.93,3.55,10.03,7.09,20.1,8.95,30.61l4.57-1.93c-4.55-9.76-7.78-20.06-11-30.31l-4.82,1.33c2.01,5.21,3.94,10.44,5.69,15.74.85,2.57,1.66,5.16,2.4,7.76s1.43,5.33,1.18,8.14l4.27-1.77c-8-9.81-10.73-22.73-16.22-33.9-1.26-2.57-5.33-.76-4.57,1.93,1.58,5.55,3.15,11.1,4.39,16.74,1.14,5.18,2.61,11,1.23,16.26l4.57-.6c-2.19-3.49-2.69-7.69-3.13-11.71-.54-4.83-.8-9.69-.82-14.55l-4.91.66c1.34,4.34,2.68,8.69,3.74,13.12.52,2.17.96,4.35,1.3,6.56.16,1.02.29,2.05.37,3.07.03.43.26,1.52-.05,1.9l3.93.51c-3.92-5.16-6.55-11.03-7.76-17.39l-4.18,2.43c5.85,4.72,10.63,10.51,14.11,17.17l3.93-3.03c-8.58-8.85-11.32-21.34-15.7-32.46l-4.57,1.93c6.42,10.55,11.65,21.76,15.56,33.47l4.57-1.93c-7-10.35-11.76-22.12-16.98-33.41-1.19-2.58-5.41-.75-4.57,1.93,3.19,10.14,6.45,20.39,7.48,31.02l4.66-1.26c-6.1-10.85-6.55-23.83-11.59-35.14-.5-1.12-2.09-1.48-3.12-1.02-1.22.53-1.65,1.68-1.45,2.95,1.79,10.96,6.68,21.33,7.27,32.5l4.66-1.26c-5.07-9-5.36-19.84-10.55-28.82-1.16-2-4.95-1.3-4.66,1.26.91,7.91,1.81,15.81,2.72,23.72.21,1.85.47,3.7.62,5.56.02.27-.03.41,0,.49-.05.17-.04.18.01.02,1.41-.24,1.8-.49,1.17-.76-.54-.5-1.53-.84-2.16-1.25-1.35-.86-2.58-1.86-3.72-2.98-.97-.95-2.04-1.98-1.93-3.42l-3.76,2.16c3.95,2.26,7.65,4.88,11.07,7.89,2.4,2.11,5.92-1.35,3.54-3.54-3.39-3.11-6.99-5.99-10.76-8.63-1.77-1.23-4.54-2.15-5.98.13-1.25,1.97.12,4.61,1.08,6.44,1.07,2.05,3.02,4.63,5.64,3.18,2.14-1.18,2.05-4.25,2.39-6.36.76-4.81,1.53-9.62,2.29-14.43.44-2.77.88-5.54,1.32-8.32.3-1.87.35-4.42,1.71-5.89l-3.93-.51c2.69,5.82,5.12,11.76,7.3,17.79,1.07,2.97,2.08,5.96,3.03,8.97.5,1.58.98,3.17,1.44,4.76.39,1.34,1.15,2.98.86,4.4l4.57-.6c-6.73-12.81-9.63-27.2-16.03-40.17l-4.32,2.52c2.89,5.85,5.47,11.84,7.73,17.96,1.11,3.01,2.14,6.06,3.09,9.12.49,1.57.96,3.15,1.4,4.73.4,1.44.91,3.01.65,4.52l4.57-.6c-6.4-9.18-8.62-20.4-13.15-30.48l-4.32,2.52c2.04,4.49,3.94,9.04,5.48,13.72.77,2.37,1.46,4.77,2.01,7.19.5,2.2.84,4.37.02,6.54l4.57-.6c-5.06-11.19-6.82-23.53-11.76-34.78-1.15-2.63-5.32-.74-4.57,1.93,3.07,10.95,5.31,22.12,6.63,33.42l4.66-1.26c-5.24-11.08-7.53-23.34-13.62-34.06-.67-1.17-2.27-1.57-3.42-.9-1.29.75-1.42,2.17-.9,3.42,2.07,4.9,3.95,9.88,5.57,14.94.8,2.48,1.53,4.99,2.19,7.51.61,2.33,1.21,4.71.49,7.08l4.57-.6c-2.08-4.92-3.61-10.09-4.63-15.34-.48-2.5-.88-5.02-.98-7.56-.05-1.29-.05-2.61.13-3.89.08-.59.18-1.22.36-1.79.02-.06.15-.39.14-.41.12-.18.1-.18-.07,0-.09.06-.16.14-.21.24l-2.43-.64c1.75,2.06,2.66,4.68,3.54,7.18,1.07,3.05,2.11,6.12,3.07,9.21,1.9,6.1,3.5,12.29,4.46,18.61l4.82-1.33c-4.24-11.73-8.15-23.58-11.71-35.53-.92-3.08-5.58-1.8-4.82,1.33,2.64,10.99,4.55,22.21,3.75,33.55l4.91-.66c-4.25-10.5-7.44-21.41-9.5-32.55l-4.82,1.33c1.62,4.12,2.8,8.44,3.34,12.84.27,2.2.39,4.42.38,6.63,0,1.07-.04,2.14-.11,3.21-.04.61-.09,1.22-.15,1.83-.02.19-.04.38-.06.56-.21.63.02.5.71-.38l3.16,2.41c-.7-9.24-1.43-18.56-3.93-27.52-.86-3.11-5.56-1.8-4.82,1.33,1.05,4.41,2.09,8.82,2.81,13.3.35,2.17.6,4.36.72,6.55.1,1.75.31,3.64-.67,5.18h4.32c-1.37-1.8-1.47-4.64-1.92-6.79l-1.67-8.09-4.82,1.33c3.18,8.91,6.36,17.83,9.54,26.74l2.41-3.16c.47.02.23.19-.02-.15-.23-.3-.51-.57-.76-.87-.52-.63-1.03-1.27-1.52-1.92-1.1-1.47-2.14-2.99-3.11-4.55-1.87-2.99-3.5-6.14-4.83-9.41l-4.18,2.43c11.53,10.04,26.72,13.05,40.57,18.55l1.33-4.82c-14.08-4.41-28.15-8.81-42.23-13.22-2.67-.84-4.48,3.28-1.93,4.57,12.89,6.5,27.52,8.07,40.58,14.1l1.26-4.66c-7.87-.35-15.62-1.74-23.3-3.45-3.84-.86-7.67-1.79-11.5-2.71-1.87-.45-3.75-.9-5.63-1.34-1.97-.46-4.07-1.14-6.07-.46s-2.6,3.5-.6,4.57c3.85,2.06,8.11,3.04,12.35,3.92s8.65,1.59,13,2.26c8.68,1.34,17.39,2.62,25.82,5.14l.66-4.91c-13.07-.08-26.14-1.08-39.06-3.1-1.53-.24-3.06-.49-4.59-.76s-3.1-.65-4.55.21-1.94,2.62-1.11,4.04c.79,1.35,2.69,1.96,4.05,2.5,2.86,1.13,5.95,1.68,8.96,2.27,3.23.64,6.48,1.19,9.74,1.7,7.29,1.16,14.59,2.23,21.88,3.34l-.6-4.57c-3.23,1.61-7.01,1.4-10.5,1.03s-6.76-.85-10.09-1.49c-6.5-1.23-13.11-3.2-18.14-7.7-2.39-2.14-5.94,1.39-3.54,3.54h0Z"/>
  <path class="cls-9" d="m120.23,209.55c-7.15,12.02-12.06,25.34-14.36,39.13-.52,3.13,3.8,4.44,4.82,1.33,2.25-6.81,4.5-13.62,6.75-20.43,1.11-3.37,2.22-6.73,3.33-10.1s2.17-6.79,2.54-10.38c.25-2.46-3.6-3.42-4.66-1.26-4.33,8.78-8.49,17.69-11.64,26.97s-5.01,19.34-5.64,29.38c-.37,5.78-.43,11.57-.49,17.35-.03,2.74,4.41,3.5,4.91.66,2.29-12.97,4.58-25.94,6.86-38.9l-4.91-.66c.26,10.74.51,21.48.77,32.22.07,2.9,3.98,3.28,4.91.66,4.33-12.13,6.66-24.93,6.96-37.8.03-1.35-1.17-2.5-2.5-2.5-1.45,0-2.38,1.15-2.5,2.5-.61,6.88-1.23,13.76-1.94,20.62-.35,3.35-.71,6.7-1.11,10.05-.34,2.86-.74,5.8-2.19,8.34l4.57.6c-.51-1.39-.48-2.77-.46-4.24.03-1.7.06-3.41.08-5.11.06-3.41.11-6.81.17-10.22.02-1.35-1.16-2.5-2.5-2.5-1.49,0-2.34,1.15-2.5,2.5-.78,6.48-2,12.91-3.57,19.25l4.91.66c-1.77-14.39,3-28.36,8.06-41.61l-4.91-.66c-.34,6.94-.69,13.88-1.03,20.82s-1.25,13.86-.17,20.62c.35,2.19,3.57,2.33,4.57.6,2.03-3.54,3.27-7.45,4.19-11.41.98-4.2,1.75-8.46,2.34-12.73,1.2-8.7,1.67-17.47,1.33-26.25h-5c1.03,16.02,2.05,32.03,3.08,48.05.17,2.71,4.16,3.51,4.91.66,3.67-14,4.16-28.53,4.6-42.92h-5c-.22,13.7-2.57,27.25-6.95,40.23l4.82,1.33c2.91-9.55,3.55-19.56,2.09-29.42-.18-1.21-1.65-1.96-2.74-1.79-1.26.19-2.11,1.18-2.17,2.46-.46,10.21-.88,20.43-1.26,30.64l4.91-.66c-1.75-4.88-3.54-9.79-6.25-14.24-1.07-1.76-4.08-1.56-4.57.6-1.03,4.57-1.25,9.22-.61,13.86.28,2.03.6,4.74,2.98,5.4s3.9-1.45,4.9-3.29c2.04-3.75,2.86-7.96,3.43-12.14.63-4.67.9-9.37.78-14.08-.06-2.3-3.56-3.64-4.66-1.26-3.38,7.31-5.43,15.04-6.09,23.07-.21,2.47,3.55,3.4,4.66,1.26,2.21-4.28,2.97-8.92,3.56-13.65.54-4.34.92-8.89,2.74-12.94l-4.66-1.26c1.27,9.83.99,19.74.69,29.62-.04,1.23.98,2.31,2.17,2.46,1.33.16,2.26-.6,2.74-1.79,2.41-5.92,2.17-12.83,2.59-19.11.45-6.79.9-13.59,1.35-20.38l-4.91.66c2.51,13.61-.6,27.49.47,41.2.23,2.94,3.83,3.24,4.91.66,1.32-3.14,1.85-6.51,2.17-9.89.35-3.6.53-7.23.7-10.84.33-7.31.39-14.64.2-21.96l-4.91.66c2.78,14.9,1.51,30.21,3.63,45.2.31,2.2,3.59,2.32,4.57.6,1.71-3.02,1.72-6.58,1.86-9.96.15-3.7.19-7.4.14-11.1-.09-7.41-.49-14.8-.9-22.2l-4.91.66c3.16,14.92,2.91,30.3,5.51,45.31.36,2.1,3.64,2.44,4.57.6,2.95-5.84,2.78-12.92,3.01-19.31.25-7.05.22-14.11.18-21.17h-5c.52,8.28,1.2,16.56,2.05,24.81.42,4.09.89,8.17,1.39,12.25s.94,7.85,2.55,11.54c.39.89,1.62,1.32,2.49,1.19,1.07-.16,1.68-.83,2.08-1.79,2.54-6.07,2.41-13.14,2.26-19.6-.16-6.97-.86-13.9-1.6-20.83l-4.91.66c2.32,13.37,3.81,26.87,4.51,40.42.14,2.76,4.11,3.46,4.91.66,3.68-12.88,3.99-26.56.98-39.61-.64-2.76-4.95-2.14-4.91.66.11,8.94.22,17.88.34,26.81.03,2.77,4.21,3.45,4.91.66,1.68-6.69,2.63-13.58,2.76-20.48.06-3.34-.07-6.68-.39-10-.29-2.96-.72-6.2-3.96-7.26-1-.33-2.33.21-2.82,1.15-4.25,8.2-6.3,17.42-5.77,26.65.15,2.7,4.22,3.53,4.91.66,3.45-14.26,4.12-28.98,2.11-43.5-.17-1.21-1.66-1.95-2.74-1.79-1.31.2-2.03,1.18-2.17,2.46-1.75,16.1-2.87,32.26-3.35,48.45-.04,1.35,1.18,2.5,2.5,2.5,1.48,0,2.35-1.15,2.5-2.5,1.92-17.39.13-35.15-5.17-51.82-.86-2.71-4.76-2.17-4.91.66-.78,15.1-.28,30.25,1.49,45.27.15,1.24.84,2.3,2.17,2.46,1.15.14,2.51-.55,2.74-1.79,2.94-15.37-.56-30.78-4.16-45.72-.64-2.67-5.28-2.18-4.91.66,1.76,13.65,3.52,27.29,5.28,40.94.16,1.23.83,2.3,2.17,2.46,1.22.14,2.41-.57,2.74-1.79.87-3.2.69-6.46.33-9.72s-.85-6.68-1.45-10-1.3-6.48-2.13-9.68c-.72-2.8-1.49-5.78-3.73-7.78-1.52-1.36-3.44-.64-4.18,1.1-2.33,5.53-4.22,11.23-5.62,17.07-.69,2.88-1.26,5.78-1.71,8.71-.48,3.13-.76,6.22.03,9.33.56,2.2,3.42,2.31,4.57.6,3.15-4.68,4.1-10.79,5.05-16.24,1.07-6.08,1.68-12.24,1.84-18.41h-5c.13,12.58.33,25.18,2.41,37.61.47,2.8,4.98,2.11,4.91-.66-.24-9.89-1.49-19.75-3.73-29.38-.73-3.14-5.52-1.81-4.82,1.33,1.48,6.63,2.95,13.25,4.43,19.88.7,3.14,5.52,1.81,4.82-1.33-1.48-6.63-2.95-13.25-4.43-19.88l-4.82,1.33c2.14,9.22,3.32,18.6,3.55,28.06l4.91-.66c-2-11.98-2.11-24.17-2.24-36.28-.03-3.22-4.92-3.22-5,0-.14,5.73-.67,11.44-1.66,17.08-.48,2.72-1.04,5.43-1.72,8.11-.62,2.46-1.4,4.81-2.83,6.93l4.57.6c-.65-2.57-.27-5.24.15-7.82.47-2.84,1.05-5.67,1.75-8.46,1.37-5.52,3.19-10.92,5.4-16.16l-4.18,1.1c1.72,1.54,2.08,4.15,2.62,6.28.75,2.97,1.4,5.97,1.95,8.98s.95,5.76,1.28,8.67.6,5.65-.15,8.39l4.91.66c-1.76-13.65-3.52-27.29-5.28-40.94l-4.91.66c3.37,13.99,6.92,28.65,4.16,43.06l4.91.66c-1.77-15.02-2.27-30.17-1.49-45.27l-4.91.66c5.19,16.29,6.88,33.5,5,50.5h5c.48-16.19,1.6-32.35,3.35-48.45l-4.91.66c1.88,13.59,1.11,27.52-2.11,40.85l4.91.66c-.48-8.35,1.23-16.69,5.09-24.12l-2.82,1.15c-.32-.11-.08-.07-.07.16,0,.15.2.83.21.86.25,1.48.3,3.02.4,4.51.18,2.94.21,5.88.09,8.82-.24,5.83-1.1,11.59-2.52,17.24l4.91.66c-.11-8.94-.22-17.88-.34-26.81l-4.91.66c2.82,12.18,2.46,24.93-.98,36.95l4.91.66c-.72-14-2.29-27.94-4.69-41.75-.48-2.75-5.21-2.14-4.91.66.72,6.76,1.4,13.53,1.59,20.33.17,6.21.38,12.93-2.07,18.77l4.57-.6c-1.38-3.17-1.6-6.85-2.02-10.24-.49-4-.94-8-1.34-12-.81-7.93-1.45-15.88-1.95-23.83-.2-3.18-5.01-3.25-5,0,.03,6.72.06,13.45-.15,20.17-.1,3.26-.25,6.52-.51,9.77-.22,2.73-.6,5.53-1.85,8.01l4.57.6c-2.59-15.01-2.34-30.38-5.51-45.31-.58-2.74-5.06-2.16-4.91.66.39,7.07.77,14.13.88,21.21.05,3.45.04,6.91-.07,10.36-.09,2.89.24,6.56-1.24,9.17l4.57.6c-2.12-15-.85-30.26-3.63-45.2-.52-2.79-4.98-2.12-4.91.66.19,7.16.13,14.32-.18,21.47-.15,3.48-.34,6.96-.64,10.43-.28,3.25-.81,6.44-2.08,9.46l4.91.66c-1.11-14.19,1.96-28.42-.65-42.53-.22-1.21-1.61-1.96-2.74-1.79-1.27.19-2.08,1.18-2.17,2.46-.44,6.63-.88,13.26-1.32,19.89-.21,3.2-.4,6.41-.65,9.61-.23,2.97-.67,5.88-1.8,8.66l4.91.66c.3-9.88.58-19.79-.69-29.62-.14-1.11-.68-2.09-1.84-2.41-.99-.27-2.38.15-2.82,1.15-1.98,4.4-2.64,9.06-3.22,13.81-.53,4.34-1.04,8.83-3.08,12.77l4.66,1.26c.59-7.09,2.43-14.09,5.41-20.55l-4.66-1.26c.12,4.65-.09,9.34-.77,13.94-.3,2.04-.68,4.08-1.27,6.06-.26.87-.55,1.74-.93,2.57-.23.51-.49,1.01-.77,1.5-.14.24-.29.49-.44.72-.48.61-.24.55.73-.19l1.26.34s.38.42.37.42c.02-.02-.15-.69-.16-.74-.1-.54-.2-1.09-.26-1.64-.16-1.31-.24-2.64-.24-3.96-.01-2.52.26-4.99.82-7.44l-4.57.6c2.49,4.09,4.13,8.56,5.74,13.05.94,2.61,4.8,2.25,4.91-.66.37-10.22.79-20.43,1.26-30.64l-4.91.66c1.33,8.95.54,18.12-2.09,26.76-.94,3.1,3.8,4.36,4.82,1.33,4.51-13.38,6.9-27.44,7.12-41.56.05-3.22-4.9-3.21-5,0-.42,13.95-.87,28.01-4.42,41.59l4.91.66c-1.03-16.02-2.05-32.03-3.08-48.05-.2-3.18-5.13-3.24-5,0,.32,8.32-.03,16.67-1.15,24.92-.56,4.13-1.31,8.24-2.24,12.3-.85,3.7-1.89,7.34-3.79,10.65l4.57.6c-.51-3.17-.29-6.43-.13-9.63.17-3.39.34-6.77.5-10.16.34-6.77.67-13.55,1.01-20.32.06-1.23-1-2.32-2.17-2.46-1.31-.16-2.29.6-2.74,1.79-5.21,13.63-10.07,28.14-8.24,42.94.15,1.24.83,2.3,2.17,2.46,1.2.14,2.44-.56,2.74-1.79,1.68-6.78,2.91-13.64,3.75-20.58h-5c-.06,3.57-.12,7.13-.18,10.7-.05,3.29-.59,7.04.56,10.19.71,1.94,3.44,2.58,4.57.6,1.65-2.9,2.26-6.08,2.69-9.35.46-3.52.83-7.05,1.2-10.58.75-7.2,1.39-14.4,2.04-21.61h-5c-.29,12.45-2.6,24.74-6.78,36.47l4.91.66c-.26-10.74-.51-21.48-.77-32.22-.06-2.7-4.4-3.55-4.91-.66-2.29,12.97-4.58,25.94-6.86,38.9l4.91.66c.11-9.87.17-19.84,1.86-29.59s4.68-18.32,8.41-26.98c2.13-4.93,4.45-9.78,6.82-14.59l-4.66-1.26c-.34,3.27-1.49,6.42-2.51,9.52l-3.33,10.1c-2.2,6.65-4.39,13.31-6.59,19.96l4.82,1.33c2.24-13.4,6.91-26.26,13.86-37.94,1.65-2.77-2.67-5.29-4.32-2.52h0Z"/>
  <path class="cls-9" d="m137.63,181.52c-2.83,1.34-4.96,3.63-6.83,6.08-2.04,2.68-3.78,5.57-5.41,8.51-3.34,6.04-6.59,12.21-9.27,18.57-1.24,2.93,2.42,5.2,4.32,2.52,5.91-8.33,11.88-16.66,19.26-23.78l-3.93-3.03c-4.88,11.09-10.14,22.02-15.76,32.76l4.32,2.52c6.2-12.18,11.06-25.02,14.43-38.27.68-2.66-3.24-4.52-4.57-1.93-7.64,14.87-15.43,29.68-22.93,44.62-1.02,2.03-1.98,4.09-2.76,6.23s-1.26,4.24-.56,6.38c.41,1.27,1.73,2.14,3.08,1.75,3.66-1.08,5.89-4.54,7.75-7.64,2.05-3.42,3.65-7.08,5.18-10.75,3.11-7.49,5.55-15.23,7.77-23.03l-4.82-1.33c-2.86,12.91-5.71,25.81-8.57,38.72-.46,2.09,1.72,3.96,3.67,2.82,1.68-.97,2.78-2.49,3.79-4.1,1.08-1.71,2.11-3.46,3.1-5.23,1.9-3.41,3.63-6.91,5.18-10.49s3-7.35,4.22-11.12c.6-1.86,1.15-3.73,1.66-5.61.58-2.16,1.11-4.23-.02-6.31-.96-1.77-3.29-1.46-4.32,0-2.03,2.88-3.05,6.48-4.3,9.74-1.41,3.64-2.81,7.28-4.22,10.93-2.78,7.21-5.56,14.41-8.34,21.62-.88,2.29,2.63,4.34,4.18,2.43,4.95-6.1,9.26-12.68,12.74-19.73,1.74-3.52,3.28-7.13,4.62-10.82,1.41-3.89,2.8-7.92,2.88-12.1.04-2.14-2.78-3.33-4.27-1.77-2.82,2.96-4.61,6.56-6.19,10.29-1.72,4.07-3.32,8.19-4.8,12.35s-2.81,8.29-4,12.5-2.2,8.74-2.17,13.25c.02,2.56,3.33,3.3,4.66,1.26,4.72-7.21,8.6-14.94,11.6-23.01,1.49-4,2.75-8.09,3.77-12.23s2.5-9.02,1.57-13.37c-.45-2.11-3.56-2.43-4.57-.6-1.8,3.27-2.73,7.04-3.78,10.6s-2.05,7.27-2.94,10.95c-1.79,7.34-3.21,14.77-4.28,22.25-.18,1.23.2,2.45,1.45,2.95,1.16.47,2.45.06,3.12-1.02,4.43-7.16,7.84-14.87,10.97-22.67s6.51-15.74,7.22-24.21c.09-1.08-.84-2.14-1.84-2.41-1.13-.31-2.18.23-2.82,1.15-4.21,6-6.26,13.56-8.36,20.49-2.26,7.47-4.13,15.06-5.61,22.72-.53,2.72,3.01,4.42,4.57,1.93,4.44-7.13,8.5-14.5,11.84-22.21,1.69-3.91,3.23-7.88,4.51-11.94.63-2,1.23-4.01,1.73-6.04.54-2.18.69-4.14-.29-6.22-.41-.88-1.59-1.33-2.49-1.19-1.06.16-1.68.83-2.08,1.79-6.28,15.24-10.76,31.17-13.35,47.45-.18,1.11.12,2.22,1.15,2.82.94.55,2.27.41,3.03-.39,3.17-3.32,5.44-7.31,7.38-11.45s3.86-8.74,5.45-13.24,2.87-9.02,3.75-13.67,2.15-9.85-.04-14.07c-1.01-1.94-4.02-1.41-4.57.6-2.23,8.1-4.2,16.26-5.9,24.48-.84,4.07-1.62,8.16-2.33,12.25s-1.77,8.26-.74,12.31c.44,1.74,2.94,2.53,4.18,1.1,2.89-3.31,4.66-7.24,6.21-11.31s2.87-8.38,3.88-12.7c2.04-8.77,2.92-17.81,2.59-26.81-.11-2.92-3.93-3.26-4.91-.66-1.39,3.7-1.75,7.73-2.32,11.61s-1.18,8.11-1.71,12.17-.99,8.01-1.36,12.03-.51,7.79.41,11.62c.26,1.06,1.34,1.84,2.41,1.84,1.17,0,2.01-.8,2.41-1.84,1.49-3.87,2.21-8.06,2.98-12.12s1.48-8.53,2.03-12.83c1.08-8.39,1.61-16.84,1.63-25.29l-4.91.66c.38,1.31.56,2.57.54,3.94-.03,2.44,3.47,3.46,4.66,1.26.59-1.08,1.04-2.23,1.32-3.43h-4.82c.97,4.48.25,9.07-.6,13.51-.93,4.85-1.77,9.67-2.19,14.6-.83,9.71-.58,19.47-1.51,29.17-.13,1.35,1.24,2.5,2.5,2.5,1.46,0,2.37-1.15,2.5-2.5.95-9.86.67-19.79,1.55-29.65.43-4.8,1.37-9.46,2.23-14.19s1.41-9.84.34-14.77c-.52-2.39-4.29-2.37-4.82,0-.18.8-.42,1.51-.81,2.24l4.66,1.26c.02-1.78-.22-3.56-.72-5.27-.78-2.69-4.91-2.19-4.91.66-.02,8.29-.53,16.58-1.57,24.81-.5,4.01-1.15,8.01-1.91,11.98s-1.49,8.25-2.98,12.12h4.82c-.85-3.54-.52-7.2-.19-10.79.36-3.86.81-7.7,1.31-11.54s1.04-7.56,1.6-11.33.91-7.57,2.25-11.12l-4.91-.66c.31,8.41-.43,16.82-2.3,25.02-.93,4.09-2.13,8.12-3.58,12.06-1.32,3.58-2.79,7.28-5.33,10.19l4.18,1.1c-.42-1.68-.27-3.42,0-5.12.31-1.99.66-3.98,1.01-5.97.7-3.93,1.45-7.85,2.27-11.76,1.65-7.9,3.56-15.74,5.7-23.52l-4.57.6c.87,1.68.45,3.89.24,5.69-.25,2.12-.62,4.23-1.06,6.32-.89,4.18-2.11,8.29-3.54,12.31s-3.02,7.82-4.79,11.61-3.72,7.42-6.59,10.43l4.18,2.43c2.59-16.28,7.07-32.21,13.35-47.45l-4.57.6c.26.55,0,1.43-.12,1.98-.2.86-.44,1.71-.67,2.56-.52,1.87-1.09,3.73-1.71,5.58-1.22,3.63-2.61,7.19-4.18,10.68-3.19,7.12-6.99,13.95-11.11,20.57l4.57,1.93c1.45-7.5,3.27-14.94,5.47-22.26,2.01-6.7,3.93-13.97,8-19.76l-4.66-1.26c-.67,7.94-4.11,15.56-7.04,22.88s-6.26,14.69-10.46,21.48l4.57,1.93c1.05-7.32,2.44-14.59,4.17-21.79.87-3.6,1.82-7.17,2.85-10.72.98-3.36,1.79-7.02,3.48-10.1l-4.57-.6c.42,1.97-.12,4.04-.51,5.98s-.87,4.03-1.38,6.03c-1,3.85-2.2,7.64-3.6,11.36-2.83,7.52-6.54,14.69-10.94,21.4l4.66,1.26c-.03-4.08.89-8.01,1.99-11.92s2.44-8.08,3.84-12.05,2.86-7.77,4.45-11.59c1.38-3.31,2.91-6.67,5.41-9.29l-4.27-1.77c-.07,3.7-1.45,7.33-2.7,10.77s-2.68,6.76-4.31,10.02c-3.25,6.51-7.18,12.68-11.77,18.33l4.18,2.43c2.72-7.05,5.44-14.1,8.16-21.16,1.35-3.49,2.69-6.97,4.04-10.46,1.22-3.16,2.19-6.68,4.16-9.48h-4.32c.21.39-.16,1.2-.26,1.59-.22.87-.46,1.74-.71,2.61-.47,1.66-.98,3.31-1.53,4.95-1.09,3.28-2.33,6.52-3.73,9.69s-2.93,6.25-4.6,9.27c-.87,1.58-1.78,3.13-2.72,4.66-.71,1.16-1.38,2.56-2.6,3.26l3.67,2.82c2.86-12.91,5.71-25.81,8.57-38.72.69-3.13-3.93-4.44-4.82-1.33-2.05,7.19-4.28,14.33-7.06,21.28-1.32,3.31-2.76,6.59-4.48,9.72-.88,1.59-1.82,3.18-2.92,4.63-.73.95-1.56,1.95-2.75,2.3l3.08,1.75c-.6-1.86.68-4.2,1.44-5.87.96-2.12,2.04-4.18,3.11-6.25l7.07-13.75c4.71-9.17,9.42-18.33,14.14-27.5l-4.57-1.93c-3.26,12.84-7.91,25.28-13.92,37.08-1.46,2.86,2.82,5.38,4.32,2.52,5.62-10.74,10.87-21.67,15.76-32.76.5-1.14.43-2.42-.64-3.23-1-.75-2.37-.69-3.28.2-7.68,7.4-13.89,16.12-20.04,24.79l4.32,2.52c2.57-6.08,5.68-11.96,8.83-17.75,1.52-2.79,3.12-5.53,4.97-8.12,1.59-2.23,3.4-4.3,5.92-5.49,1.22-.58,1.54-2.33.9-3.42-.73-1.25-2.2-1.48-3.42-.9h0Z"/>
  <path class="cls-9" d="m113.07,243.51c-1.24,3.82-2.49,7.66-3.23,11.62s-1.25,7.9,1.4,11.15c.85,1.05,2.65.89,3.54,0,1.04-1.04.86-2.49,0-3.54-.63-.77-.6-2.1-.53-3.23.09-1.53.4-3.06.73-4.55.76-3.43,1.84-6.78,2.93-10.12,1-3.07-3.83-4.38-4.82-1.33h0Z"/>
  <path class="cls-9" d="m181.64,326.06c.32,0,.32-.5,0-.5s-.32.5,0,.5h0Z"/>
  <path class="cls-9" d="m181.68,326.04c.32,0,.32-.5,0-.5s-.32.5,0,.5h0Z"/>
  <path class="cls-9" d="m181.65,325.96c.32,0,.32-.5,0-.5s-.32.5,0,.5h0Z"/>
  <path class="cls-9" d="m181.59,325.9c.32,0,.32-.5,0-.5s-.32.5,0,.5h0Z"/>
  <path class="cls-9" d="m181.69,326.19c.32,0,.32-.5,0-.5s-.32.5,0,.5h0Z"/>
  <path class="cls-9" d="m181.7,326.21c.32,0,.32-.5,0-.5s-.32.5,0,.5h0Z"/>
  <path class="cls-9" d="m181.74,326.25c.32,0,.32-.5,0-.5s-.32.5,0,.5h0Z"/>
  <path class="cls-9" d="m181.7,326.19c.32,0,.32-.5,0-.5s-.32.5,0,.5h0Z"/>
  <path class="cls-9" d="m181.7,326.13c.32,0,.32-.5,0-.5s-.32.5,0,.5h0Z"/>
  <path class="cls-9" d="m181.74,326.36c.32,0,.32-.5,0-.5s-.32.5,0,.5h0Z"/>
  <path class="cls-9" d="m181.77,326.43c.32,0,.32-.5,0-.5s-.32.5,0,.5h0Z"/>
  <path class="cls-9" d="m181.77,326.36c.32,0,.32-.5,0-.5s-.32.5,0,.5h0Z"/>
  <path class="cls-9" d="m181.81,326.47c.32,0,.32-.5,0-.5s-.32.5,0,.5h0Z"/>
  <path class="cls-9" d="m181.57,326.33h0s0,.08.02.11c.01.03.03.06.05.08.02.02.05.04.08.05.03.02.06.02.1.02h.07s.08-.04.11-.07l.04-.05s.03-.08.03-.13h0s0-.08-.02-.11c-.01-.03-.03-.06-.05-.08-.02-.02-.05-.04-.08-.05-.03-.02-.06-.02-.1-.02h-.07s-.08.04-.11.07l-.04.05s-.03.08-.03.13h0Z"/>
  <path class="cls-9" d="m181.86,326.75c.32,0,.32-.5,0-.5s-.32.5,0,.5h0Z"/>
  <path class="cls-9" d="m181.89,326.77c.32,0,.32-.5,0-.5s-.32.5,0,.5h0Z"/>
  <path class="cls-3" d="m182.18,326.52c-.06-.23-.14-.48-.14-.48l-.05-.18-.05-.17-.06-.16-.03-.07"/>
  <path class="cls-9" d="m94.39,314.43c4.79,3.26,10.3,5.39,15.71,7.38s11.02,3.72,16.66,5.12c11.34,2.81,23.02,4.38,34.71,4.68,6.58.17,13.16-.09,19.7-.74,1.34-.13,2.5-1.05,2.5-2.5,0-1.25-1.15-2.63-2.5-2.5-22.66,2.26-45.65-.44-67.15-7.95-5.89-2.06-11.92-4.28-17.11-7.81-2.67-1.82-5.17,2.52-2.52,4.32h0Z"/>
  <path class="cls-8" d="m184.97,327.94c3.22,0,3.22-5,0-5s-3.22,5,0,5h0Z"/>
  <path class="cls-8" d="m184.97,328.03c3.22,0,3.22-5,0-5s-3.22,5,0,5h0Z"/>
  <path class="cls-8" d="m184.71,327.77c3.22,0,3.22-5,0-5s-3.22,5,0,5h0Z"/>
  <path class="cls-8" d="m184.88,328.2c3.22,0,3.22-5,0-5s-3.22,5,0,5h0Z"/>
  <path class="cls-8" d="m182.96,326.15c.8,0,.81-1.25,0-1.25s-.81,1.25,0,1.25h0Z"/>
  <path class="cls-8" d="m182.12,325.45c.28,1.05.72,2.07,1.32,2.98.18.27.56.41.86.22.27-.18.42-.56.22-.86-.28-.43-.53-.87-.74-1.34-.02-.05-.05-.11-.07-.16.06.15-.02-.06-.03-.08-.05-.12-.09-.23-.13-.35-.09-.24-.16-.49-.23-.74-.08-.32-.45-.54-.77-.44s-.53.43-.44.77h0Z"/>
  <path class="cls-8" d="m182.04,325.09c.03.28.08.54.18.8s.22.5.38.72c.04.07.09.13.16.18.06.06.13.09.21.11.15.04.35.02.48-.06s.25-.21.29-.37.04-.35-.06-.48c-.12-.16-.22-.33-.3-.52l.06.15c-.09-.2-.14-.42-.17-.63l.02.17s0-.04,0-.06c0-.09-.01-.17-.05-.24-.03-.08-.07-.14-.13-.2-.11-.11-.29-.19-.44-.18s-.33.06-.44.18c-.1.11-.2.28-.18.44h0Z"/>
  <path class="cls-8" d="m182.06,325.85l.68.97c.04.07.09.13.16.18.06.06.13.09.21.11.15.04.35.02.48-.06s.25-.21.29-.37.03-.35-.06-.48l-.68-.97c-.04-.07-.09-.13-.16-.18-.06-.06-.13-.09-.21-.11-.15-.04-.35-.02-.48.06s-.25.21-.29.37-.03.35.06.48h0Z"/>
</svg>